<svg width="250" height="86" viewBox="0 0 250 86" fill="none" xmlns="http://www.w3.org/2000/svg">
<g filter="url(#filter0_ddddd_1_42)">
<path d="M245 36.9979C245 54.6725 229.37 69 210.087 69H39.9101C20.6289 69 5 54.6725 5 36.9979V33.0013C5 15.3275 20.6289 1 39.9101 1H210.087C229.369 1 245 15.3275 245 33.0013V36.9979Z" fill="url(#paint0_radial_1_42)"/>
<path opacity="0.41" d="M245 36.9979C245 54.6725 229.37 69 210.087 69H39.9101C20.6289 69 5 54.6725 5 36.9979V33.0013C5 15.3275 20.6289 1 39.9101 1H210.087C229.369 1 245 15.3275 245 33.0013V36.9979Z" fill="url(#paint1_radial_1_42)"/>
<path d="M241.736 36.7391C241.736 52.1051 228.146 64.5617 211.383 64.5617H38.6165C21.8529 64.5617 8.26404 52.1051 8.26404 36.7391V33.2638C8.26404 17.8978 21.8529 5.44037 38.6165 5.44037H211.383C228.146 5.44037 241.736 17.897 241.736 33.2638V36.7391Z" fill="url(#paint2_radial_1_42)"/>
<path opacity="0.38" d="M8.30737 38.2368C8.27939 37.7404 8.26404 37.2414 8.26404 36.7391V33.2638C8.26404 17.8978 21.8529 5.44037 38.6165 5.44037H211.383C228.146 5.44037 241.736 17.897 241.736 33.2638V36.7391C241.736 37.2414 241.721 37.7404 241.693 38.2368C241.693 38.2368 228.474 90.3661 87.603 25.3086C21.546 -5.1983 8.30737 38.2368 8.30737 38.2368Z" fill="#0EA5E9"/>
<path opacity="0.38" d="M8.30737 38.2368C8.27939 37.7404 8.26404 37.2414 8.26404 36.7391V33.2638C8.26404 17.8978 21.8529 5.44037 38.6165 5.44037H211.383C228.146 5.44037 241.736 17.897 241.736 33.2638V36.7391C241.736 37.2414 241.721 37.7404 241.693 38.2368C241.693 38.2368 207.977 2.9911 124.944 40.6919C23.6357 86.6905 8.30737 38.2368 8.30737 38.2368Z" fill="#0EA5E9"/>
<g filter="url(#filter1_dd_1_42)">
<path d="M87.2906 30.032L85.5386 36.92C85.5226 36.968 85.5306 37.016 85.5626 37.064C85.6106 37.096 85.6586 37.112 85.7066 37.112H88.9226C88.9706 37.112 89.0106 37.096 89.0426 37.064C89.0906 37.016 89.1066 36.968 89.0906 36.92L87.3386 30.032C87.3386 30.016 87.3306 30.008 87.3146 30.008C87.2986 30.008 87.2906 30.016 87.2906 30.032ZM80.8826 44C80.5466 44 80.2746 43.864 80.0666 43.592C79.8746 43.32 79.8346 43.024 79.9466 42.704L84.7946 27.776C84.9226 27.392 85.1466 27.08 85.4666 26.84C85.8026 26.6 86.1706 26.48 86.5706 26.48H88.1546C88.5706 26.48 88.9466 26.6 89.2826 26.84C89.6186 27.08 89.8426 27.392 89.9546 27.776L94.7786 42.704C94.8906 43.024 94.8426 43.32 94.6346 43.592C94.4426 43.864 94.1786 44 93.8426 44H92.2346C91.8346 44 91.4746 43.88 91.1546 43.64C90.8346 43.384 90.6266 43.064 90.5306 42.68L89.9546 40.4C89.9386 40.272 89.8586 40.208 89.7146 40.208H84.9146C84.7866 40.208 84.7066 40.272 84.6746 40.4L84.0986 42.68C84.0026 43.064 83.7946 43.384 83.4746 43.64C83.1546 43.88 82.7946 44 82.3946 44H80.8826ZM103.63 44.24C101.006 44.24 98.9415 43.464 97.4375 41.912C95.9335 40.36 95.1815 38.136 95.1815 35.24C95.1815 32.392 95.9095 30.184 97.3655 28.616C98.8215 27.032 100.854 26.24 103.462 26.24C104.71 26.24 105.798 26.328 106.726 26.504C107.11 26.568 107.422 26.76 107.661 27.08C107.902 27.4 108.022 27.76 108.022 28.16V28.928C108.022 29.264 107.886 29.528 107.614 29.72C107.342 29.912 107.046 29.968 106.726 29.888C105.814 29.648 104.886 29.528 103.942 29.528C102.502 29.528 101.374 30.016 100.558 30.992C99.7575 31.968 99.3575 33.384 99.3575 35.24C99.3575 37.064 99.7895 38.48 100.654 39.488C101.518 40.496 102.67 41 104.11 41C105.07 41 106.006 40.88 106.918 40.64C107.238 40.56 107.534 40.616 107.806 40.808C108.094 41 108.238 41.264 108.238 41.6V42.32C108.238 42.72 108.11 43.08 107.854 43.4C107.614 43.72 107.302 43.912 106.918 43.976C105.974 44.152 104.878 44.24 103.63 44.24ZM118.911 44.24C116.287 44.24 114.223 43.464 112.719 41.912C111.215 40.36 110.463 38.136 110.463 35.24C110.463 32.392 111.191 30.184 112.647 28.616C114.103 27.032 116.135 26.24 118.743 26.24C119.991 26.24 121.079 26.328 122.007 26.504C122.391 26.568 122.703 26.76 122.943 27.08C123.183 27.4 123.303 27.76 123.303 28.16V28.928C123.303 29.264 123.167 29.528 122.895 29.72C122.623 29.912 122.327 29.968 122.007 29.888C121.095 29.648 120.167 29.528 119.223 29.528C117.783 29.528 116.655 30.016 115.839 30.992C115.039 31.968 114.639 33.384 114.639 35.24C114.639 37.064 115.071 38.48 115.935 39.488C116.799 40.496 117.951 41 119.391 41C120.351 41 121.287 40.88 122.199 40.64C122.519 40.56 122.815 40.616 123.087 40.808C123.375 41 123.519 41.264 123.519 41.6V42.32C123.519 42.72 123.391 43.08 123.135 43.4C122.895 43.72 122.583 43.912 122.199 43.976C121.255 44.152 120.159 44.24 118.911 44.24ZM128.402 44C128.034 44 127.714 43.864 127.442 43.592C127.186 43.32 127.058 43 127.058 42.632V27.848C127.058 27.48 127.186 27.16 127.442 26.888C127.714 26.616 128.034 26.48 128.402 26.48H136.898C137.266 26.48 137.578 26.616 137.834 26.888C138.106 27.16 138.242 27.48 138.242 27.848V28.4C138.242 28.768 138.106 29.088 137.834 29.36C137.578 29.632 137.266 29.768 136.898 29.768H131.33C131.202 29.768 131.138 29.832 131.138 29.96V33.128C131.138 33.272 131.202 33.344 131.33 33.344H136.418C136.786 33.344 137.098 33.48 137.354 33.752C137.626 34.024 137.762 34.344 137.762 34.712V35.072C137.762 35.44 137.626 35.76 137.354 36.032C137.098 36.304 136.786 36.44 136.418 36.44H131.33C131.202 36.44 131.138 36.504 131.138 36.632V40.52C131.138 40.648 131.202 40.712 131.33 40.712H136.898C137.266 40.712 137.578 40.848 137.834 41.12C138.106 41.392 138.242 41.712 138.242 42.08V42.632C138.242 43 138.106 43.32 137.834 43.592C137.578 43.864 137.266 44 136.898 44H128.402ZM145.668 29.696V34.928C145.668 35.04 145.74 35.112 145.884 35.144C146.428 35.208 146.86 35.24 147.18 35.24C148.332 35.24 149.22 34.976 149.844 34.448C150.484 33.904 150.804 33.152 150.804 32.192C150.804 30.288 149.596 29.336 147.18 29.336C146.78 29.336 146.34 29.376 145.86 29.456C145.732 29.488 145.668 29.568 145.668 29.696ZM143.028 44C142.66 44 142.34 43.864 142.068 43.592C141.796 43.32 141.66 43 141.66 42.632V27.968C141.66 27.584 141.788 27.24 142.044 26.936C142.3 26.632 142.62 26.464 143.004 26.432C144.364 26.304 145.676 26.24 146.94 26.24C152.06 26.24 154.62 28.144 154.62 31.952C154.62 34.016 154.02 35.584 152.82 36.656C151.636 37.712 149.892 38.24 147.588 38.24C146.98 38.24 146.412 38.216 145.884 38.168C145.74 38.168 145.668 38.232 145.668 38.36V42.632C145.668 43 145.532 43.32 145.26 43.592C144.988 43.864 144.668 44 144.3 44H143.028ZM157.475 29.864C157.107 29.864 156.787 29.728 156.515 29.456C156.243 29.184 156.107 28.864 156.107 28.496V27.848C156.107 27.48 156.243 27.16 156.515 26.888C156.787 26.616 157.107 26.48 157.475 26.48H168.179C168.547 26.48 168.867 26.616 169.139 26.888C169.411 27.16 169.547 27.48 169.547 27.848V28.496C169.547 28.864 169.411 29.184 169.139 29.456C168.867 29.728 168.547 29.864 168.179 29.864H165.107C164.979 29.864 164.915 29.928 164.915 30.056V42.632C164.915 43 164.779 43.32 164.507 43.592C164.235 43.864 163.915 44 163.547 44H162.107C161.739 44 161.419 43.864 161.147 43.592C160.875 43.32 160.739 43 160.739 42.632V30.056C160.739 29.928 160.675 29.864 160.547 29.864H157.475Z" fill="white"/>
</g>
</g>
<defs>
<filter id="filter0_ddddd_1_42" x="0" y="0" width="250" height="86" filterUnits="userSpaceOnUse" color-interpolation-filters="sRGB">
<feFlood flood-opacity="0" result="BackgroundImageFix"/>
<feColorMatrix in="SourceAlpha" type="matrix" values="0 0 0 0 0 0 0 0 0 0 0 0 0 0 0 0 0 0 127 0" result="hardAlpha"/>
<feOffset/>
<feColorMatrix type="matrix" values="0 0 0 0 0 0 0 0 0 0 0 0 0 0 0 0 0 0 0.24 0"/>
<feBlend mode="normal" in2="BackgroundImageFix" result="effect1_dropShadow_1_42"/>
<feColorMatrix in="SourceAlpha" type="matrix" values="0 0 0 0 0 0 0 0 0 0 0 0 0 0 0 0 0 0 127 0" result="hardAlpha"/>
<feOffset dy="1"/>
<feGaussianBlur stdDeviation="1"/>
<feColorMatrix type="matrix" values="0 0 0 0 0 0 0 0 0 0 0 0 0 0 0 0 0 0 0.24 0"/>
<feBlend mode="normal" in2="effect1_dropShadow_1_42" result="effect2_dropShadow_1_42"/>
<feColorMatrix in="SourceAlpha" type="matrix" values="0 0 0 0 0 0 0 0 0 0 0 0 0 0 0 0 0 0 127 0" result="hardAlpha"/>
<feOffset dy="3"/>
<feGaussianBlur stdDeviation="1.5"/>
<feColorMatrix type="matrix" values="0 0 0 0 0 0 0 0 0 0 0 0 0 0 0 0 0 0 0.2 0"/>
<feBlend mode="normal" in2="effect2_dropShadow_1_42" result="effect3_dropShadow_1_42"/>
<feColorMatrix in="SourceAlpha" type="matrix" values="0 0 0 0 0 0 0 0 0 0 0 0 0 0 0 0 0 0 127 0" result="hardAlpha"/>
<feOffset dy="7"/>
<feGaussianBlur stdDeviation="2"/>
<feColorMatrix type="matrix" values="0 0 0 0 0 0 0 0 0 0 0 0 0 0 0 0 0 0 0.12 0"/>
<feBlend mode="normal" in2="effect3_dropShadow_1_42" result="effect4_dropShadow_1_42"/>
<feColorMatrix in="SourceAlpha" type="matrix" values="0 0 0 0 0 0 0 0 0 0 0 0 0 0 0 0 0 0 127 0" result="hardAlpha"/>
<feOffset dy="12"/>
<feGaussianBlur stdDeviation="2.5"/>
<feColorMatrix type="matrix" values="0 0 0 0 0 0 0 0 0 0 0 0 0 0 0 0 0 0 0.04 0"/>
<feBlend mode="normal" in2="effect4_dropShadow_1_42" result="effect5_dropShadow_1_42"/>
<feBlend mode="normal" in="SourceGraphic" in2="effect5_dropShadow_1_42" result="shape"/>
</filter>
<filter id="filter1_dd_1_42" x="71.7786" y="20.24" width="105.768" height="34" filterUnits="userSpaceOnUse" color-interpolation-filters="sRGB">
<feFlood flood-opacity="0" result="BackgroundImageFix"/>
<feColorMatrix in="SourceAlpha" type="matrix" values="0 0 0 0 0 0 0 0 0 0 0 0 0 0 0 0 0 0 127 0" result="hardAlpha"/>
<feOffset dy="2"/>
<feGaussianBlur stdDeviation="4"/>
<feColorMatrix type="matrix" values="0 0 0 0 0 0 0 0 0 0 0 0 0 0 0 0 0 0 0.25 0"/>
<feBlend mode="normal" in2="BackgroundImageFix" result="effect1_dropShadow_1_42"/>
<feColorMatrix in="SourceAlpha" type="matrix" values="0 0 0 0 0 0 0 0 0 0 0 0 0 0 0 0 0 0 127 0" result="hardAlpha"/>
<feOffset dy="2"/>
<feColorMatrix type="matrix" values="0 0 0 0 0.308333 0 0 0 0 0.308333 0 0 0 0 0.308333 0 0 0 0.6 0"/>
<feBlend mode="normal" in2="effect1_dropShadow_1_42" result="effect2_dropShadow_1_42"/>
<feBlend mode="normal" in="SourceGraphic" in2="effect2_dropShadow_1_42" result="shape"/>
</filter>
<radialGradient id="paint0_radial_1_42" cx="0" cy="0" r="1" gradientUnits="userSpaceOnUse" gradientTransform="translate(179.197 -120.799) scale(325.709 298.57)">
<stop stop-color="#075985"/>
<stop offset="0.196" stop-color="#0D70A5"/>
<stop offset="0.438" stop-color="#106FA2"/>
<stop offset="0.6608" stop-color="#0C4A6E"/>
<stop offset="0.8553" stop-color="#0C4A6E"/>
<stop offset="1" stop-color="#0C4A6E"/>
</radialGradient>
<radialGradient id="paint1_radial_1_42" cx="0" cy="0" r="1" gradientUnits="userSpaceOnUse" gradientTransform="translate(179.197 -120.799) scale(325.709 298.57)">
<stop stop-color="#0EA5E9"/>
<stop offset="1" stop-color="#0369A1"/>
</radialGradient>
<radialGradient id="paint2_radial_1_42" cx="0" cy="0" r="1" gradientUnits="userSpaceOnUse" gradientTransform="translate(143.134 -3.22862) scale(206.124 188.949)">
<stop stop-color="#0EA5E9"/>
<stop offset="1" stop-color="#0369A1"/>
</radialGradient>
</defs>
</svg>
