<svg width="250" height="93" viewBox="0 0 250 93" fill="none" xmlns="http://www.w3.org/2000/svg">
<g filter="url(#filter0_dddddd_7_15)">
<path d="M245 36.9979C245 54.6725 229.37 69 210.087 69H39.9101C20.6289 69 5 54.6725 5 36.9979V33.0013C5 15.3275 20.6289 1 39.9101 1H210.087C229.369 1 245 15.3275 245 33.0013V36.9979Z" fill="url(#paint0_radial_7_15)"/>
<path opacity="0.41" d="M245 36.9979C245 54.6725 229.37 69 210.087 69H39.9101C20.6289 69 5 54.6725 5 36.9979V33.0013C5 15.3275 20.6289 1 39.9101 1H210.087C229.369 1 245 15.3275 245 33.0013V36.9979Z" fill="url(#paint1_radial_7_15)"/>
<path d="M241.736 36.7391C241.736 52.1051 228.146 64.5617 211.383 64.5617H38.6165C21.8529 64.5617 8.26404 52.1051 8.26404 36.7391V33.2638C8.26404 17.8978 21.8529 5.44037 38.6165 5.44037H211.383C228.146 5.44037 241.736 17.897 241.736 33.2638V36.7391Z" fill="url(#paint2_radial_7_15)"/>
<path opacity="0.38" d="M8.30737 38.2368C8.27939 37.7404 8.26404 37.2414 8.26404 36.7391V33.2638C8.26404 17.8978 21.8529 5.44037 38.6165 5.44037H211.383C228.146 5.44037 241.736 17.897 241.736 33.2638V36.7391C241.736 37.2414 241.721 37.7404 241.693 38.2368C241.693 38.2368 228.474 90.3661 87.603 25.3086C21.546 -5.1983 8.30737 38.2368 8.30737 38.2368Z" fill="#FFDF00"/>
<path opacity="0.38" d="M8.30737 38.2368C8.27939 37.7404 8.26404 37.2414 8.26404 36.7391V33.2638C8.26404 17.8978 21.8529 5.44037 38.6165 5.44037H211.383C228.146 5.44037 241.736 17.897 241.736 33.2638V36.7391C241.736 37.2414 241.721 37.7404 241.693 38.2368C241.693 38.2368 207.977 2.9911 124.944 40.6919C23.6357 86.6905 8.30737 38.2368 8.30737 38.2368Z" fill="#FFDF00"/>
<g filter="url(#filter1_dd_7_15)">
<path d="M41.9303 44C41.5623 44 41.2423 43.864 40.9703 43.592C40.6983 43.32 40.5623 43 40.5623 42.632V27.848C40.5623 27.48 40.6983 27.16 40.9703 26.888C41.2423 26.616 41.5623 26.48 41.9303 26.48H43.4183C43.7863 26.48 44.0983 26.616 44.3543 26.888C44.6263 27.16 44.7623 27.48 44.7623 27.848V40.424C44.7623 40.552 44.8343 40.616 44.9783 40.616H50.8103C51.1783 40.616 51.4983 40.752 51.7703 41.024C52.0423 41.296 52.1783 41.616 52.1783 41.984V42.632C52.1783 43 52.0423 43.32 51.7703 43.592C51.4983 43.864 51.1783 44 50.8103 44H41.9303ZM56.5782 44C56.2102 44 55.8902 43.864 55.6182 43.592C55.3622 43.32 55.2342 43 55.2342 42.632V27.848C55.2342 27.48 55.3622 27.16 55.6182 26.888C55.8902 26.616 56.2102 26.48 56.5782 26.48H65.0742C65.4422 26.48 65.7542 26.616 66.0102 26.888C66.2822 27.16 66.4182 27.48 66.4182 27.848V28.4C66.4182 28.768 66.2822 29.088 66.0102 29.36C65.7542 29.632 65.4422 29.768 65.0742 29.768H59.5062C59.3782 29.768 59.3142 29.832 59.3142 29.96V33.128C59.3142 33.272 59.3782 33.344 59.5062 33.344H64.5942C64.9622 33.344 65.2742 33.48 65.5302 33.752C65.8022 34.024 65.9382 34.344 65.9382 34.712V35.072C65.9382 35.44 65.8022 35.76 65.5302 36.032C65.2742 36.304 64.9622 36.44 64.5942 36.44H59.5062C59.3782 36.44 59.3142 36.504 59.3142 36.632V40.52C59.3142 40.648 59.3782 40.712 59.5062 40.712H65.0742C65.4422 40.712 65.7542 40.848 66.0102 41.12C66.2822 41.392 66.4182 41.712 66.4182 42.08V42.632C66.4182 43 66.2822 43.32 66.0102 43.592C65.7542 43.864 65.4422 44 65.0742 44H56.5782ZM76.0757 30.032L74.3237 36.92C74.3077 36.968 74.3157 37.016 74.3477 37.064C74.3957 37.096 74.4437 37.112 74.4917 37.112H77.7077C77.7557 37.112 77.7957 37.096 77.8277 37.064C77.8757 37.016 77.8917 36.968 77.8757 36.92L76.1237 30.032C76.1237 30.016 76.1157 30.008 76.0997 30.008C76.0837 30.008 76.0757 30.016 76.0757 30.032ZM69.6677 44C69.3317 44 69.0597 43.864 68.8517 43.592C68.6597 43.32 68.6197 43.024 68.7317 42.704L73.5797 27.776C73.7077 27.392 73.9317 27.08 74.2517 26.84C74.5877 26.6 74.9557 26.48 75.3557 26.48H76.9397C77.3557 26.48 77.7317 26.6 78.0677 26.84C78.4037 27.08 78.6277 27.392 78.7397 27.776L83.5637 42.704C83.6757 43.024 83.6277 43.32 83.4197 43.592C83.2277 43.864 82.9637 44 82.6277 44H81.0197C80.6197 44 80.2597 43.88 79.9397 43.64C79.6197 43.384 79.4117 43.064 79.3157 42.68L78.7397 40.4C78.7237 40.272 78.6437 40.208 78.4997 40.208H73.6997C73.5717 40.208 73.4917 40.272 73.4597 40.4L72.8837 42.68C72.7877 43.064 72.5797 43.384 72.2597 43.64C71.9397 43.88 71.5797 44 71.1797 44H69.6677ZM89.7572 29.792V40.688C89.7572 40.832 89.8292 40.92 89.9732 40.952C90.2932 41.016 90.6772 41.048 91.1252 41.048C92.7412 41.048 93.9332 40.576 94.7012 39.632C95.4852 38.688 95.8772 37.144 95.8772 35C95.8772 33.08 95.4852 31.672 94.7012 30.776C93.9172 29.88 92.7252 29.432 91.1252 29.432C90.6772 29.432 90.2932 29.464 89.9732 29.528C89.8292 29.56 89.7572 29.648 89.7572 29.792ZM87.1172 44.048C86.7332 44.016 86.4132 43.856 86.1572 43.568C85.9012 43.264 85.7732 42.912 85.7732 42.512V27.968C85.7732 27.568 85.9012 27.224 86.1572 26.936C86.4132 26.632 86.7332 26.464 87.1172 26.432C88.3652 26.304 89.5972 26.24 90.8132 26.24C93.6772 26.24 95.8852 27 97.4372 28.52C98.9892 30.04 99.7652 32.2 99.7652 35C99.7652 38.04 98.9892 40.344 97.4372 41.912C95.8852 43.464 93.6772 44.24 90.8132 44.24C89.5972 44.24 88.3652 44.176 87.1172 44.048ZM103.688 44C103.32 44 103 43.864 102.728 43.592C102.472 43.32 102.344 43 102.344 42.632V27.848C102.344 27.48 102.472 27.16 102.728 26.888C103 26.616 103.32 26.48 103.688 26.48H112.184C112.552 26.48 112.864 26.616 113.12 26.888C113.392 27.16 113.528 27.48 113.528 27.848V28.4C113.528 28.768 113.392 29.088 113.12 29.36C112.864 29.632 112.552 29.768 112.184 29.768H106.616C106.488 29.768 106.424 29.832 106.424 29.96V33.128C106.424 33.272 106.488 33.344 106.616 33.344H111.704C112.072 33.344 112.384 33.48 112.64 33.752C112.912 34.024 113.048 34.344 113.048 34.712V35.072C113.048 35.44 112.912 35.76 112.64 36.032C112.384 36.304 112.072 36.44 111.704 36.44H106.616C106.488 36.44 106.424 36.504 106.424 36.632V40.52C106.424 40.648 106.488 40.712 106.616 40.712H112.184C112.552 40.712 112.864 40.848 113.12 41.12C113.392 41.392 113.528 41.712 113.528 42.08V42.632C113.528 43 113.392 43.32 113.12 43.592C112.864 43.864 112.552 44 112.184 44H103.688ZM120.953 29.696V34.304C120.953 34.448 121.017 34.52 121.145 34.52H122.297C123.417 34.52 124.273 34.288 124.865 33.824C125.457 33.344 125.753 32.68 125.753 31.832C125.753 30.168 124.657 29.336 122.465 29.336C121.969 29.336 121.537 29.368 121.169 29.432C121.025 29.464 120.953 29.552 120.953 29.696ZM118.313 44C117.945 44 117.625 43.864 117.353 43.592C117.081 43.32 116.945 43 116.945 42.632V27.968C116.945 27.568 117.073 27.224 117.329 26.936C117.601 26.648 117.929 26.488 118.313 26.456C119.737 26.312 121.201 26.24 122.705 26.24C125.105 26.24 126.889 26.696 128.057 27.608C129.241 28.504 129.833 29.784 129.833 31.448C129.833 32.52 129.521 33.488 128.897 34.352C128.273 35.2 127.457 35.808 126.449 36.176C126.433 36.176 126.425 36.184 126.425 36.2C126.425 36.232 126.441 36.248 126.473 36.248C127.257 36.696 127.921 37.64 128.465 39.08L129.833 42.728C129.945 43.032 129.905 43.32 129.713 43.592C129.521 43.864 129.265 44 128.945 44H127.481C127.065 44 126.689 43.88 126.353 43.64C126.017 43.4 125.785 43.088 125.657 42.704L124.457 39.248C124.233 38.576 123.961 38.12 123.641 37.88C123.321 37.64 122.825 37.52 122.153 37.52H121.145C121.017 37.52 120.953 37.592 120.953 37.736V42.632C120.953 43 120.817 43.32 120.545 43.592C120.273 43.864 119.953 44 119.585 44H118.313ZM136.609 36.56V40.784C136.609 40.928 136.681 41.016 136.825 41.048C137.161 41.112 137.569 41.144 138.049 41.144C139.185 41.144 140.017 40.936 140.545 40.52C141.073 40.088 141.337 39.432 141.337 38.552C141.337 37.08 140.137 36.344 137.737 36.344H136.801C136.673 36.344 136.609 36.416 136.609 36.56ZM136.609 29.696V33.224C136.609 33.352 136.673 33.416 136.801 33.416H137.401C139.737 33.416 140.905 32.72 140.905 31.328C140.905 30 139.929 29.336 137.977 29.336C137.513 29.336 137.121 29.368 136.801 29.432C136.673 29.464 136.609 29.552 136.609 29.696ZM133.945 44.048C133.561 44.016 133.241 43.848 132.985 43.544C132.729 43.24 132.601 42.896 132.601 42.512V27.968C132.601 27.568 132.729 27.224 132.985 26.936C133.257 26.632 133.585 26.464 133.969 26.432C135.217 26.304 136.441 26.24 137.641 26.24C142.281 26.24 144.601 27.736 144.601 30.728C144.601 31.736 144.273 32.592 143.617 33.296C142.977 34 142.113 34.448 141.025 34.64C141.009 34.64 141.001 34.656 141.001 34.688C141.001 34.704 141.017 34.712 141.049 34.712C142.313 34.888 143.313 35.368 144.049 36.152C144.801 36.936 145.177 37.872 145.177 38.96C145.177 40.736 144.585 42.064 143.401 42.944C142.233 43.808 140.393 44.24 137.881 44.24C136.617 44.24 135.305 44.176 133.945 44.048ZM158.902 35.24C158.902 31.48 157.558 29.6 154.87 29.6C152.182 29.6 150.838 31.48 150.838 35.24C150.838 39 152.182 40.88 154.87 40.88C157.558 40.88 158.902 39 158.902 35.24ZM160.87 41.864C159.398 43.448 157.398 44.24 154.87 44.24C152.342 44.24 150.342 43.448 148.87 41.864C147.398 40.264 146.662 38.056 146.662 35.24C146.662 32.424 147.398 30.224 148.87 28.64C150.342 27.04 152.342 26.24 154.87 26.24C157.398 26.24 159.398 27.04 160.87 28.64C162.342 30.224 163.078 32.424 163.078 35.24C163.078 38.056 162.342 40.264 160.87 41.864ZM171.162 30.032L169.41 36.92C169.394 36.968 169.402 37.016 169.434 37.064C169.482 37.096 169.53 37.112 169.578 37.112H172.794C172.842 37.112 172.882 37.096 172.914 37.064C172.962 37.016 172.978 36.968 172.962 36.92L171.21 30.032C171.21 30.016 171.202 30.008 171.186 30.008C171.17 30.008 171.162 30.016 171.162 30.032ZM164.754 44C164.418 44 164.146 43.864 163.938 43.592C163.746 43.32 163.706 43.024 163.818 42.704L168.666 27.776C168.794 27.392 169.018 27.08 169.338 26.84C169.674 26.6 170.042 26.48 170.442 26.48H172.026C172.442 26.48 172.818 26.6 173.154 26.84C173.49 27.08 173.714 27.392 173.826 27.776L178.65 42.704C178.762 43.024 178.714 43.32 178.506 43.592C178.314 43.864 178.05 44 177.714 44H176.106C175.706 44 175.346 43.88 175.026 43.64C174.706 43.384 174.498 43.064 174.402 42.68L173.826 40.4C173.81 40.272 173.73 40.208 173.586 40.208H168.786C168.658 40.208 168.578 40.272 168.546 40.4L167.97 42.68C167.874 43.064 167.666 43.384 167.346 43.64C167.026 43.88 166.666 44 166.266 44H164.754ZM184.867 29.696V34.304C184.867 34.448 184.931 34.52 185.059 34.52H186.211C187.331 34.52 188.187 34.288 188.779 33.824C189.371 33.344 189.667 32.68 189.667 31.832C189.667 30.168 188.571 29.336 186.379 29.336C185.883 29.336 185.451 29.368 185.083 29.432C184.939 29.464 184.867 29.552 184.867 29.696ZM182.227 44C181.859 44 181.539 43.864 181.267 43.592C180.995 43.32 180.859 43 180.859 42.632V27.968C180.859 27.568 180.987 27.224 181.243 26.936C181.515 26.648 181.843 26.488 182.227 26.456C183.651 26.312 185.115 26.24 186.619 26.24C189.019 26.24 190.803 26.696 191.971 27.608C193.155 28.504 193.747 29.784 193.747 31.448C193.747 32.52 193.435 33.488 192.811 34.352C192.187 35.2 191.371 35.808 190.363 36.176C190.347 36.176 190.339 36.184 190.339 36.2C190.339 36.232 190.355 36.248 190.387 36.248C191.171 36.696 191.835 37.64 192.379 39.08L193.747 42.728C193.859 43.032 193.819 43.32 193.627 43.592C193.435 43.864 193.179 44 192.859 44H191.395C190.979 44 190.603 43.88 190.267 43.64C189.931 43.4 189.699 43.088 189.571 42.704L188.371 39.248C188.147 38.576 187.875 38.12 187.555 37.88C187.235 37.64 186.739 37.52 186.067 37.52H185.059C184.931 37.52 184.867 37.592 184.867 37.736V42.632C184.867 43 184.731 43.32 184.459 43.592C184.187 43.864 183.867 44 183.499 44H182.227ZM200.499 29.792V40.688C200.499 40.832 200.571 40.92 200.715 40.952C201.035 41.016 201.419 41.048 201.867 41.048C203.483 41.048 204.675 40.576 205.443 39.632C206.227 38.688 206.619 37.144 206.619 35C206.619 33.08 206.227 31.672 205.443 30.776C204.659 29.88 203.467 29.432 201.867 29.432C201.419 29.432 201.035 29.464 200.715 29.528C200.571 29.56 200.499 29.648 200.499 29.792ZM197.859 44.048C197.475 44.016 197.155 43.856 196.899 43.568C196.643 43.264 196.515 42.912 196.515 42.512V27.968C196.515 27.568 196.643 27.224 196.899 26.936C197.155 26.632 197.475 26.464 197.859 26.432C199.107 26.304 200.339 26.24 201.555 26.24C204.419 26.24 206.627 27 208.179 28.52C209.731 30.04 210.507 32.2 210.507 35C210.507 38.04 209.731 40.344 208.179 41.912C206.627 43.464 204.419 44.24 201.555 44.24C200.339 44.24 199.107 44.176 197.859 44.048Z" fill="white"/>
</g>
</g>
<defs>
<filter id="filter0_dddddd_7_15" x="0" y="0" width="250" height="93" filterUnits="userSpaceOnUse" color-interpolation-filters="sRGB">
<feFlood flood-opacity="0" result="BackgroundImageFix"/>
<feColorMatrix in="SourceAlpha" type="matrix" values="0 0 0 0 0 0 0 0 0 0 0 0 0 0 0 0 0 0 127 0" result="hardAlpha"/>
<feOffset/>
<feColorMatrix type="matrix" values="0 0 0 0 1 0 0 0 0 0.87451 0 0 0 0 0 0 0 0 0.24 0"/>
<feBlend mode="normal" in2="BackgroundImageFix" result="effect1_dropShadow_7_15"/>
<feColorMatrix in="SourceAlpha" type="matrix" values="0 0 0 0 0 0 0 0 0 0 0 0 0 0 0 0 0 0 127 0" result="hardAlpha"/>
<feOffset dy="1"/>
<feGaussianBlur stdDeviation="1"/>
<feColorMatrix type="matrix" values="0 0 0 0 1 0 0 0 0 0.87451 0 0 0 0 0 0 0 0 0.2 0"/>
<feBlend mode="normal" in2="effect1_dropShadow_7_15" result="effect2_dropShadow_7_15"/>
<feColorMatrix in="SourceAlpha" type="matrix" values="0 0 0 0 0 0 0 0 0 0 0 0 0 0 0 0 0 0 127 0" result="hardAlpha"/>
<feOffset dy="3"/>
<feGaussianBlur stdDeviation="1.5"/>
<feColorMatrix type="matrix" values="0 0 0 0 1 0 0 0 0 0.87451 0 0 0 0 0 0 0 0 0.04 0"/>
<feBlend mode="normal" in2="effect2_dropShadow_7_15" result="effect3_dropShadow_7_15"/>
<feColorMatrix in="SourceAlpha" type="matrix" values="0 0 0 0 0 0 0 0 0 0 0 0 0 0 0 0 0 0 127 0" result="hardAlpha"/>
<feOffset dy="7"/>
<feGaussianBlur stdDeviation="2"/>
<feColorMatrix type="matrix" values="0 0 0 0 1 0 0 0 0 0.87451 0 0 0 0 0 0 0 0 0.04 0"/>
<feBlend mode="normal" in2="effect3_dropShadow_7_15" result="effect4_dropShadow_7_15"/>
<feColorMatrix in="SourceAlpha" type="matrix" values="0 0 0 0 0 0 0 0 0 0 0 0 0 0 0 0 0 0 127 0" result="hardAlpha"/>
<feOffset dy="12"/>
<feGaussianBlur stdDeviation="2.5"/>
<feColorMatrix type="matrix" values="0 0 0 0 1 0 0 0 0 0.87451 0 0 0 0 0 0 0 0 0.04 0"/>
<feBlend mode="normal" in2="effect4_dropShadow_7_15" result="effect5_dropShadow_7_15"/>
<feColorMatrix in="SourceAlpha" type="matrix" values="0 0 0 0 0 0 0 0 0 0 0 0 0 0 0 0 0 0 127 0" result="hardAlpha"/>
<feOffset dy="19"/>
<feGaussianBlur stdDeviation="2.5"/>
<feColorMatrix type="matrix" values="0 0 0 0 1 0 0 0 0 0.87451 0 0 0 0 0 0 0 0 0.05 0"/>
<feBlend mode="normal" in2="effect5_dropShadow_7_15" result="effect6_dropShadow_7_15"/>
<feBlend mode="normal" in="SourceGraphic" in2="effect6_dropShadow_7_15" result="shape"/>
</filter>
<filter id="filter1_dd_7_15" x="32.5623" y="20.24" width="185.945" height="34" filterUnits="userSpaceOnUse" color-interpolation-filters="sRGB">
<feFlood flood-opacity="0" result="BackgroundImageFix"/>
<feColorMatrix in="SourceAlpha" type="matrix" values="0 0 0 0 0 0 0 0 0 0 0 0 0 0 0 0 0 0 127 0" result="hardAlpha"/>
<feOffset dy="2"/>
<feGaussianBlur stdDeviation="4"/>
<feColorMatrix type="matrix" values="0 0 0 0 0 0 0 0 0 0 0 0 0 0 0 0 0 0 0.25 0"/>
<feBlend mode="normal" in2="BackgroundImageFix" result="effect1_dropShadow_7_15"/>
<feColorMatrix in="SourceAlpha" type="matrix" values="0 0 0 0 0 0 0 0 0 0 0 0 0 0 0 0 0 0 127 0" result="hardAlpha"/>
<feOffset dy="2"/>
<feColorMatrix type="matrix" values="0 0 0 0 0.308333 0 0 0 0 0.308333 0 0 0 0 0.308333 0 0 0 0.6 0"/>
<feBlend mode="normal" in2="effect1_dropShadow_7_15" result="effect2_dropShadow_7_15"/>
<feBlend mode="normal" in="SourceGraphic" in2="effect2_dropShadow_7_15" result="shape"/>
</filter>
<radialGradient id="paint0_radial_7_15" cx="0" cy="0" r="1" gradientUnits="userSpaceOnUse" gradientTransform="translate(179.197 -120.799) scale(325.709 298.57)">
<stop stop-color="#F6D108"/>
<stop offset="0.196" stop-color="#EDC211"/>
<stop offset="0.438" stop-color="#FFDF00"/>
<stop offset="0.6608" stop-color="#FFDF00"/>
<stop offset="0.8553" stop-color="#FFDF00"/>
<stop offset="1" stop-color="#FFDF00"/>
</radialGradient>
<radialGradient id="paint1_radial_7_15" cx="0" cy="0" r="1" gradientUnits="userSpaceOnUse" gradientTransform="translate(179.197 -120.799) scale(325.709 298.57)">
<stop stop-color="white"/>
<stop offset="1" stop-color="white"/>
</radialGradient>
<radialGradient id="paint2_radial_7_15" cx="0" cy="0" r="1" gradientUnits="userSpaceOnUse" gradientTransform="translate(143.134 -3.22862) scale(206.124 188.949)">
<stop stop-color="#DAA521"/>
<stop offset="1" stop-color="#E3B419"/>
</radialGradient>
</defs>
</svg>
