<svg width="413" height="182" viewBox="0 0 413 182" fill="none" xmlns="http://www.w3.org/2000/svg">
<g filter="url(#filter0_d_12_164)">
<path d="M91.3458 104.291L91.3458 153.435L17.33 153.435L39.052 128.863L1 104.291L91.3458 104.291Z" fill="#E0263B"/>
<path d="M310.654 104.291L310.654 153.435L384.67 153.435L362.948 128.863L401 104.291L310.654 104.291Z" fill="#E0263B"/>
<path d="M69.892 113.54L91.3458 104.291V164.924H69.892V113.54Z" fill="#493A52"/>
<path d="M332.108 113.54L310.654 104.291V164.924H332.108V113.54Z" fill="#493A52"/>
<path d="M224 113L224 170L73.6749 170C73.6749 170 60 170 60 141.5C60 113 73.6749 113 73.6749 113L224 113Z" fill="#B51F30"/>
<path d="M224 113L224 170L331.327 170C331.327 170 341 170 341 141.5C341 113 331.327 113 331.327 113L224 113Z" fill="#B51F30"/>
</g>
<path d="M78.2809 103.008L182.512 110.266L186.285 110.256L324.944 119.306L322.033 89.6067L231.045 96.9297L315.854 71.7049L288.884 38.2992L223.472 86.5764L270.029 18.4371L214.028 0.379781L204.139 86.6295L186.285 0.379787L138.029 12.3798L186.229 89.9795L116.276 30.2852L96.0688 55.3327L182.476 97.063L83.8747 79.4149L78.2809 103.008Z" fill="url(#paint0_radial_12_164)" fill-opacity="0.2"/>
<mask id="path-8-outside-1_12_164" maskUnits="userSpaceOnUse" x="176.603" y="68.0015" width="48" height="49" fill="black">
<rect fill="white" x="176.603" y="68.0015" width="48" height="49"/>
<path fill-rule="evenodd" clip-rule="evenodd" d="M203.872 72.2303C202.405 69.2586 198.167 69.2586 196.699 72.2303L193.096 79.5261C192.513 80.7064 191.387 81.5243 190.085 81.7134L182.032 82.8828C179.424 83.2615 178.061 85.8872 178.805 88.1105C178.361 89.4688 178.627 91.0583 179.816 92.2167L185.639 97.8896C186.13 98.3676 186.482 98.9553 186.676 99.592L185.416 106.934C185.302 107.594 185.352 108.223 185.527 108.793L185.416 109.444C184.855 112.712 188.284 115.204 191.218 113.662L198.425 109.875C199.59 109.263 200.981 109.263 202.146 109.875L209.353 113.662C212.288 115.204 215.717 112.712 215.156 109.444L215.044 108.793C215.22 108.223 215.269 107.594 215.156 106.934L213.896 99.592C214.089 98.9553 214.441 98.3676 214.932 97.8896L220.756 92.2167C221.945 91.0583 222.21 89.4688 221.767 88.1106C222.51 85.8872 221.148 83.2615 218.539 82.8828L210.487 81.7134C209.184 81.5243 208.058 80.7064 207.475 79.5261L203.872 72.2303Z"/>
</mask>
<path fill-rule="evenodd" clip-rule="evenodd" d="M203.872 72.2303C202.405 69.2586 198.167 69.2586 196.699 72.2303L193.096 79.5261C192.513 80.7064 191.387 81.5243 190.085 81.7134L182.032 82.8828C179.424 83.2615 178.061 85.8872 178.805 88.1105C178.361 89.4688 178.627 91.0583 179.816 92.2167L185.639 97.8896C186.13 98.3676 186.482 98.9553 186.676 99.592L185.416 106.934C185.302 107.594 185.352 108.223 185.527 108.793L185.416 109.444C184.855 112.712 188.284 115.204 191.218 113.662L198.425 109.875C199.59 109.263 200.981 109.263 202.146 109.875L209.353 113.662C212.288 115.204 215.717 112.712 215.156 109.444L215.044 108.793C215.22 108.223 215.269 107.594 215.156 106.934L213.896 99.592C214.089 98.9553 214.441 98.3676 214.932 97.8896L220.756 92.2167C221.945 91.0583 222.21 89.4688 221.767 88.1106C222.51 85.8872 221.148 83.2615 218.539 82.8828L210.487 81.7134C209.184 81.5243 208.058 80.7064 207.475 79.5261L203.872 72.2303Z" fill="url(#paint1_linear_12_164)"/>
<path d="M196.699 72.2303L198.493 73.1159V73.1159L196.699 72.2303ZM203.872 72.2303L205.666 71.3447L205.666 71.3447L203.872 72.2303ZM193.096 79.5261L194.89 80.4117L193.096 79.5261ZM190.085 81.7134L189.797 79.7342L190.085 81.7134ZM182.032 82.8828L182.32 84.862H182.32L182.032 82.8828ZM178.805 88.1105L180.706 88.731L180.911 88.103L180.701 87.4765L178.805 88.1105ZM179.816 92.2167L181.212 90.7841H181.212L179.816 92.2167ZM185.639 97.8896L184.244 99.3222H184.244L185.639 97.8896ZM186.676 99.592L188.647 99.9303L188.727 99.4636L188.589 99.0105L186.676 99.592ZM185.416 106.934L187.387 107.272L185.416 106.934ZM185.527 108.793L187.499 109.131L187.579 108.661L187.439 108.204L185.527 108.793ZM185.416 109.444L183.444 109.106V109.106L185.416 109.444ZM191.218 113.662L190.288 111.891H190.288L191.218 113.662ZM198.425 109.875L199.356 111.646L199.356 111.646L198.425 109.875ZM202.146 109.875L203.076 108.105L202.146 109.875ZM209.353 113.662L210.283 111.891L209.353 113.662ZM215.156 109.444L213.185 109.783V109.783L215.156 109.444ZM215.044 108.793L213.133 108.204L212.992 108.661L213.073 109.131L215.044 108.793ZM215.156 106.934L217.127 106.596V106.596L215.156 106.934ZM213.896 99.592L211.982 99.0105L211.845 99.4636L211.925 99.9303L213.896 99.592ZM214.932 97.8896L216.328 99.3222L214.932 97.8896ZM220.756 92.2167L222.151 93.6494L220.756 92.2167ZM221.767 88.1106L219.87 87.4765L219.661 88.103L219.866 88.731L221.767 88.1106ZM218.539 82.8828L218.827 80.9035L218.539 82.8828ZM210.487 81.7134L210.2 83.6927H210.2L210.487 81.7134ZM207.475 79.5261L205.682 80.4117V80.4117L207.475 79.5261ZM198.493 73.1159C199.226 71.63 201.345 71.63 202.079 73.1159L205.666 71.3447C203.464 66.8871 197.107 66.8871 194.906 71.3447L198.493 73.1159ZM194.89 80.4117L198.493 73.1159L194.906 71.3447L191.303 78.6405L194.89 80.4117ZM190.372 83.6927C192.326 83.4089 194.015 82.182 194.89 80.4117L191.303 78.6405C191.012 79.2307 190.449 79.6396 189.797 79.7342L190.372 83.6927ZM182.32 84.862L190.372 83.6927L189.797 79.7342L181.745 80.9035L182.32 84.862ZM180.701 87.4765C180.323 86.3437 181.039 85.048 182.32 84.862L181.745 80.9035C177.809 81.4751 175.8 85.4306 176.908 88.7446L180.701 87.4765ZM181.212 90.7841C180.615 90.2029 180.478 89.4282 180.706 88.731L176.903 87.4901C176.244 89.5095 176.639 91.9137 178.42 93.6494L181.212 90.7841ZM187.035 96.457L181.212 90.7841L178.42 93.6494L184.244 99.3222L187.035 96.457ZM188.589 99.0105C188.299 98.0559 187.771 97.174 187.035 96.457L184.244 99.3222C184.489 99.5612 184.665 99.8548 184.762 100.173L188.589 99.0105ZM187.387 107.272L188.647 99.9303L184.704 99.2537L183.444 106.596L187.387 107.272ZM187.439 108.204C187.355 107.933 187.327 107.622 187.387 107.272L183.444 106.596C183.278 107.566 183.348 108.512 183.616 109.381L187.439 108.204ZM187.387 109.783L187.499 109.131L183.556 108.455L183.444 109.106L187.387 109.783ZM190.288 111.891C188.821 112.662 187.106 111.416 187.387 109.783L183.444 109.106C182.603 114.007 187.747 117.745 192.149 115.432L190.288 111.891ZM197.495 108.105L190.288 111.891L192.149 115.432L199.356 111.646L197.495 108.105ZM203.076 108.105C201.329 107.187 199.242 107.187 197.495 108.105L199.356 111.646C199.938 111.34 200.634 111.34 201.216 111.646L203.076 108.105ZM210.283 111.891L203.076 108.105L201.216 111.646L208.423 115.432L210.283 111.891ZM213.185 109.783C213.465 111.416 211.751 112.662 210.283 111.891L208.423 115.432C212.825 117.745 217.968 114.007 217.127 109.106L213.185 109.783ZM213.073 109.131L213.185 109.783L217.127 109.106L217.015 108.455L213.073 109.131ZM213.185 107.272C213.245 107.622 213.216 107.933 213.133 108.204L216.956 109.381C217.223 108.512 217.294 107.566 217.127 106.596L213.185 107.272ZM211.925 99.9303L213.185 107.272L217.127 106.596L215.867 99.2537L211.925 99.9303ZM213.537 96.457C212.801 97.174 212.272 98.0559 211.982 99.0105L215.81 100.173C215.906 99.8548 216.082 99.5612 216.328 99.3222L213.537 96.457ZM219.36 90.7841L213.537 96.457L216.328 99.3222L222.151 93.6494L219.36 90.7841ZM219.866 88.731C220.093 89.4282 219.957 90.2029 219.36 90.7841L222.151 93.6494C223.933 91.9137 224.327 89.5095 223.668 87.4901L219.866 88.731ZM218.252 84.862C219.533 85.048 220.249 86.3437 219.87 87.4765L223.664 88.7446C224.772 85.4306 222.763 81.4751 218.827 80.9035L218.252 84.862ZM210.2 83.6927L218.252 84.862L218.827 80.9035L210.774 79.7342L210.2 83.6927ZM205.682 80.4117C206.556 82.1821 208.246 83.4089 210.2 83.6927L210.774 79.7342C210.123 79.6396 209.56 79.2307 209.269 78.6406L205.682 80.4117ZM202.079 73.1159L205.682 80.4117L209.269 78.6406L205.666 71.3447L202.079 73.1159Z" fill="white" mask="url(#path-8-outside-1_12_164)"/>
<g filter="url(#filter1_d_12_164)">
<path d="M196.873 72.2624C198.34 69.2906 202.578 69.2906 204.046 72.2624L207.649 79.5582C208.231 80.7384 209.358 81.5564 210.66 81.7455L218.713 82.9148C221.994 83.3914 223.304 87.4246 220.929 89.7386L215.105 95.4114C214.162 96.3305 213.731 97.6551 213.954 98.9533L215.329 106.966C215.89 110.233 212.461 112.726 209.527 111.184L202.32 107.397C201.155 106.785 199.763 106.785 198.599 107.397L191.392 111.184C188.457 112.726 185.028 110.233 185.589 106.966L186.964 98.9533C187.187 97.6551 186.756 96.3305 185.813 95.4114L179.989 89.7386C177.614 87.4246 178.924 83.3914 182.206 82.9148L190.258 81.7455C191.561 81.5564 192.687 80.7384 193.27 79.5582L196.873 72.2624Z" fill="url(#paint2_linear_12_164)"/>
</g>
<mask id="path-11-outside-2_12_164" maskUnits="userSpaceOnUse" x="141.078" y="84.9851" width="39" height="40" fill="black">
<rect fill="white" x="141.078" y="84.9851" width="39" height="40"/>
<path fill-rule="evenodd" clip-rule="evenodd" d="M163.968 89.2139C162.5 86.2422 158.262 86.2422 156.795 89.2139L154.545 93.7692C153.962 94.9494 152.836 95.7673 151.533 95.9565L146.507 96.6864C143.98 97.0534 142.622 99.5309 143.217 101.707C142.866 103.017 143.163 104.503 144.291 105.602L147.925 109.142C148.456 109.659 148.824 110.305 149.005 111.002L148.218 115.592C148.115 116.192 148.146 116.766 148.285 117.294L148.218 117.684C147.657 120.951 151.086 123.443 154.021 121.902L158.521 119.537C159.686 118.925 161.077 118.925 162.242 119.537L166.742 121.902C169.676 123.444 173.105 120.951 172.545 117.684L172.478 117.294C172.616 116.766 172.648 116.192 172.545 115.592L171.757 111.002C171.938 110.305 172.306 109.659 172.838 109.142L176.471 105.602C177.599 104.503 177.896 103.017 177.546 101.707C178.141 99.5309 176.783 97.0534 174.255 96.6864L169.229 95.9565C167.926 95.7673 166.8 94.9494 166.217 93.7692L163.968 89.2139Z"/>
</mask>
<path fill-rule="evenodd" clip-rule="evenodd" d="M163.968 89.2139C162.5 86.2422 158.262 86.2422 156.795 89.2139L154.545 93.7692C153.962 94.9494 152.836 95.7673 151.533 95.9565L146.507 96.6864C143.98 97.0534 142.622 99.5309 143.217 101.707C142.866 103.017 143.163 104.503 144.291 105.602L147.925 109.142C148.456 109.659 148.824 110.305 149.005 111.002L148.218 115.592C148.115 116.192 148.146 116.766 148.285 117.294L148.218 117.684C147.657 120.951 151.086 123.443 154.021 121.902L158.521 119.537C159.686 118.925 161.077 118.925 162.242 119.537L166.742 121.902C169.676 123.444 173.105 120.951 172.545 117.684L172.478 117.294C172.616 116.766 172.648 116.192 172.545 115.592L171.757 111.002C171.938 110.305 172.306 109.659 172.838 109.142L176.471 105.602C177.599 104.503 177.896 103.017 177.546 101.707C178.141 99.5309 176.783 97.0534 174.255 96.6864L169.229 95.9565C167.926 95.7673 166.8 94.9494 166.217 93.7692L163.968 89.2139Z" fill="url(#paint3_linear_12_164)"/>
<path d="M156.795 89.2139L155.001 88.3283V88.3283L156.795 89.2139ZM163.968 89.2139L162.174 90.0995V90.0995L163.968 89.2139ZM154.545 93.7692L152.752 92.8836V92.8836L154.545 93.7692ZM151.533 95.9565L151.821 97.9357H151.821L151.533 95.9565ZM146.507 96.6864L146.22 94.7071L146.507 96.6864ZM143.217 101.707L145.149 102.225L145.289 101.702L145.146 101.18L143.217 101.707ZM144.291 105.602L145.687 104.169H145.687L144.291 105.602ZM147.925 109.142L146.529 110.574H146.529L147.925 109.142ZM149.005 111.002L150.977 111.341L151.049 110.917L150.941 110.5L149.005 111.002ZM148.218 115.592L150.189 115.93H150.189L148.218 115.592ZM148.285 117.294L150.256 117.632L150.329 117.205L150.219 116.786L148.285 117.294ZM148.218 117.684L150.189 118.022L148.218 117.684ZM154.021 121.902L153.09 120.131H153.09L154.021 121.902ZM158.521 119.537L159.451 121.308L159.451 121.308L158.521 119.537ZM162.242 119.537L161.311 121.308L161.311 121.308L162.242 119.537ZM166.742 121.902L167.672 120.131H167.672L166.742 121.902ZM172.545 117.684L170.573 118.022V118.022L172.545 117.684ZM172.478 117.294L170.543 116.786L170.433 117.205L170.506 117.632L172.478 117.294ZM172.545 115.592L174.516 115.254V115.254L172.545 115.592ZM171.757 111.002L169.821 110.5L169.713 110.917L169.786 111.341L171.757 111.002ZM172.838 109.142L171.442 107.709L171.442 107.709L172.838 109.142ZM176.471 105.602L175.076 104.169L176.471 105.602ZM177.546 101.707L175.616 101.18L175.474 101.702L175.614 102.225L177.546 101.707ZM174.255 96.6864L173.968 98.6656L174.255 96.6864ZM169.229 95.9565L168.941 97.9357L169.229 95.9565ZM166.217 93.7692L164.424 94.6548L166.217 93.7692ZM158.588 90.0995C159.322 88.6136 161.441 88.6136 162.174 90.0995L165.761 88.3284C163.56 83.8707 157.203 83.8707 155.001 88.3283L158.588 90.0995ZM156.338 94.6548L158.588 90.0995L155.001 88.3283L152.752 92.8836L156.338 94.6548ZM151.821 97.9357C153.775 97.652 155.464 96.4251 156.338 94.6548L152.752 92.8836C152.46 93.4737 151.897 93.8827 151.246 93.9773L151.821 97.9357ZM146.795 98.6656L151.821 97.9357L151.246 93.9773L146.22 94.7071L146.795 98.6656ZM145.146 101.18C144.841 100.065 145.554 98.8458 146.795 98.6656L146.22 94.7071C142.405 95.2611 140.402 98.997 141.288 102.235L145.146 101.18ZM145.687 104.169C145.118 103.616 144.97 102.892 145.149 102.225L141.285 101.19C140.762 103.141 141.208 105.391 142.896 107.035L145.687 104.169ZM149.32 107.709L145.687 104.169L142.896 107.035L146.529 110.574L149.32 107.709ZM150.941 110.5C150.67 109.454 150.117 108.485 149.32 107.709L146.529 110.574C146.795 110.833 146.979 111.156 147.07 111.505L150.941 110.5ZM150.189 115.93L150.977 111.341L147.034 110.664L146.247 115.254L150.189 115.93ZM150.219 116.786C150.153 116.535 150.134 116.249 150.189 115.93L146.247 115.254C146.095 116.135 146.139 116.998 146.35 117.801L150.219 116.786ZM150.189 118.022L150.256 117.632L146.314 116.955L146.247 117.346L150.189 118.022ZM153.09 120.131C151.623 120.902 149.909 119.656 150.189 118.022L146.247 117.346C145.405 122.247 150.549 125.985 154.951 123.672L153.09 120.131ZM157.591 117.767L153.09 120.131L154.951 123.672L159.451 121.308L157.591 117.767ZM163.172 117.767C161.425 116.849 159.338 116.849 157.591 117.767L159.451 121.308C160.033 121.002 160.729 121.002 161.311 121.308L163.172 117.767ZM167.672 120.131L163.172 117.767L161.311 121.308L165.812 123.672L167.672 120.131ZM170.573 118.022C170.854 119.656 169.139 120.902 167.672 120.131L165.812 123.672C170.214 125.985 175.357 122.247 174.516 117.346L170.573 118.022ZM170.506 117.632L170.573 118.022L174.516 117.346L174.449 116.955L170.506 117.632ZM170.573 115.93C170.628 116.249 170.609 116.535 170.543 116.786L174.412 117.801C174.623 116.998 174.667 116.135 174.516 115.254L170.573 115.93ZM169.786 111.341L170.573 115.93L174.516 115.254L173.728 110.664L169.786 111.341ZM171.442 107.709C170.645 108.485 170.092 109.454 169.821 110.5L173.693 111.505C173.783 111.156 173.968 110.833 174.233 110.574L171.442 107.709ZM175.076 104.169L171.442 107.709L174.233 110.574L177.867 107.035L175.076 104.169ZM175.614 102.225C175.792 102.892 175.644 103.616 175.076 104.169L177.867 107.035C179.554 105.391 180 103.141 179.477 101.19L175.614 102.225ZM173.968 98.6656C175.208 98.8458 175.921 100.065 175.616 101.18L179.475 102.235C180.36 98.997 178.357 95.2611 174.542 94.7071L173.968 98.6656ZM168.941 97.9357L173.968 98.6656L174.542 94.7071L169.516 93.9773L168.941 97.9357ZM164.424 94.6548C165.298 96.4251 166.988 97.652 168.941 97.9357L169.516 93.9773C168.865 93.8827 168.302 93.4737 168.011 92.8836L164.424 94.6548ZM162.174 90.0995L164.424 94.6548L168.011 92.8836L165.761 88.3284L162.174 90.0995Z" fill="white" mask="url(#path-11-outside-2_12_164)"/>
<g filter="url(#filter2_d_12_164)">
<path d="M156.939 89.2405C158.407 86.2688 162.645 86.2688 164.112 89.2406L166.362 93.7958C166.945 94.976 168.071 95.7939 169.373 95.9831L174.399 96.713C177.681 97.1895 178.991 101.223 176.616 103.537L172.982 107.076C172.039 107.995 171.608 109.32 171.831 110.618L172.689 115.619C173.25 118.886 169.821 121.378 166.886 119.836L162.386 117.472C161.221 116.86 159.83 116.86 158.665 117.472L154.165 119.836C151.23 121.378 147.801 118.886 148.362 115.619L149.22 110.618C149.443 109.32 149.013 107.995 148.069 107.076L144.436 103.537C142.06 101.223 143.37 97.1895 146.652 96.713L151.678 95.9831C152.98 95.7939 154.107 94.976 154.69 93.7958L156.939 89.2405Z" fill="url(#paint4_linear_12_164)"/>
</g>
<mask id="path-14-outside-3_12_164" maskUnits="userSpaceOnUse" x="220.027" y="84.9851" width="39" height="40" fill="black">
<rect fill="white" x="220.027" y="84.9851" width="39" height="40"/>
<path fill-rule="evenodd" clip-rule="evenodd" d="M242.917 89.2139C241.449 86.2422 237.211 86.2422 235.744 89.2139L233.494 93.7692C232.911 94.9494 231.785 95.7673 230.482 95.9565L225.456 96.6864C222.928 97.0534 221.57 99.5309 222.166 101.707C221.815 103.017 222.112 104.503 223.24 105.602L226.874 109.142C227.405 109.659 227.773 110.305 227.954 111.002L227.167 115.592C227.064 116.192 227.095 116.766 227.234 117.294L227.167 117.684C226.606 120.951 230.035 123.443 232.969 121.902L237.47 119.537C238.634 118.925 240.026 118.925 241.19 119.537L245.691 121.902C248.625 123.444 252.054 120.951 251.493 117.684L251.426 117.294C251.565 116.766 251.596 116.192 251.493 115.592L250.706 111.002C250.887 110.305 251.255 109.659 251.786 109.142L255.42 105.602C256.548 104.503 256.845 103.017 256.494 101.707C257.09 99.5309 255.732 97.0534 253.204 96.6864L248.178 95.9565C246.875 95.7673 245.749 94.9494 245.166 93.7692L242.917 89.2139Z"/>
</mask>
<path fill-rule="evenodd" clip-rule="evenodd" d="M242.917 89.2139C241.449 86.2422 237.211 86.2422 235.744 89.2139L233.494 93.7692C232.911 94.9494 231.785 95.7673 230.482 95.9565L225.456 96.6864C222.928 97.0534 221.57 99.5309 222.166 101.707C221.815 103.017 222.112 104.503 223.24 105.602L226.874 109.142C227.405 109.659 227.773 110.305 227.954 111.002L227.167 115.592C227.064 116.192 227.095 116.766 227.234 117.294L227.167 117.684C226.606 120.951 230.035 123.443 232.969 121.902L237.47 119.537C238.634 118.925 240.026 118.925 241.19 119.537L245.691 121.902C248.625 123.444 252.054 120.951 251.493 117.684L251.426 117.294C251.565 116.766 251.596 116.192 251.493 115.592L250.706 111.002C250.887 110.305 251.255 109.659 251.786 109.142L255.42 105.602C256.548 104.503 256.845 103.017 256.494 101.707C257.09 99.5309 255.732 97.0534 253.204 96.6864L248.178 95.9565C246.875 95.7673 245.749 94.9494 245.166 93.7692L242.917 89.2139Z" fill="url(#paint5_linear_12_164)"/>
<path d="M235.744 89.2139L233.95 88.3283V88.3283L235.744 89.2139ZM242.917 89.2139L241.123 90.0995V90.0995L242.917 89.2139ZM233.494 93.7692L231.701 92.8836V92.8836L233.494 93.7692ZM230.482 95.9565L230.77 97.9357H230.77L230.482 95.9565ZM225.456 96.6864L225.169 94.7071L225.456 96.6864ZM222.166 101.707L224.098 102.225L224.238 101.702L224.095 101.18L222.166 101.707ZM223.24 105.602L224.636 104.169H224.636L223.24 105.602ZM226.874 109.142L225.478 110.574H225.478L226.874 109.142ZM227.954 111.002L229.925 111.341L229.998 110.917L229.89 110.5L227.954 111.002ZM227.167 115.592L229.138 115.93H229.138L227.167 115.592ZM227.234 117.294L229.205 117.632L229.278 117.205L229.168 116.786L227.234 117.294ZM227.167 117.684L229.138 118.022L227.167 117.684ZM232.969 121.902L232.039 120.131H232.039L232.969 121.902ZM237.47 119.537L238.4 121.308L238.4 121.308L237.47 119.537ZM241.19 119.537L240.26 121.308L240.26 121.308L241.19 119.537ZM245.691 121.902L246.621 120.131H246.621L245.691 121.902ZM251.493 117.684L249.522 118.022V118.022L251.493 117.684ZM251.426 117.294L249.492 116.786L249.382 117.205L249.455 117.632L251.426 117.294ZM251.493 115.592L253.465 115.254V115.254L251.493 115.592ZM250.706 111.002L248.77 110.5L248.662 110.917L248.735 111.341L250.706 111.002ZM251.786 109.142L250.391 107.709L250.391 107.709L251.786 109.142ZM255.42 105.602L254.025 104.169L255.42 105.602ZM256.494 101.707L254.565 101.18L254.422 101.702L254.562 102.225L256.494 101.707ZM253.204 96.6864L252.916 98.6656L253.204 96.6864ZM248.178 95.9565L247.89 97.9357L248.178 95.9565ZM245.166 93.7692L243.373 94.6548L245.166 93.7692ZM237.537 90.0995C238.271 88.6136 240.389 88.6136 241.123 90.0995L244.71 88.3284C242.508 83.8707 236.152 83.8707 233.95 88.3283L237.537 90.0995ZM235.287 94.6548L237.537 90.0995L233.95 88.3283L231.701 92.8836L235.287 94.6548ZM230.77 97.9357C232.724 97.652 234.413 96.4251 235.287 94.6548L231.701 92.8836C231.409 93.4737 230.846 93.8827 230.195 93.9773L230.77 97.9357ZM225.744 98.6656L230.77 97.9357L230.195 93.9773L225.169 94.7071L225.744 98.6656ZM224.095 101.18C223.79 100.065 224.503 98.8458 225.744 98.6656L225.169 94.7071C221.354 95.2611 219.351 98.997 220.237 102.235L224.095 101.18ZM224.636 104.169C224.067 103.616 223.919 102.892 224.098 102.225L220.234 101.19C219.711 103.141 220.157 105.391 221.844 107.035L224.636 104.169ZM228.269 107.709L224.636 104.169L221.844 107.035L225.478 110.574L228.269 107.709ZM229.89 110.5C229.619 109.454 229.066 108.485 228.269 107.709L225.478 110.574C225.744 110.833 225.928 111.156 226.018 111.505L229.89 110.5ZM229.138 115.93L229.925 111.341L225.983 110.664L225.195 115.254L229.138 115.93ZM229.168 116.786C229.102 116.535 229.083 116.249 229.138 115.93L225.195 115.254C225.044 116.135 225.088 116.998 225.299 117.801L229.168 116.786ZM229.138 118.022L229.205 117.632L225.262 116.955L225.195 117.346L229.138 118.022ZM232.039 120.131C230.572 120.902 228.857 119.656 229.138 118.022L225.195 117.346C224.354 122.247 229.498 125.985 233.9 123.672L232.039 120.131ZM236.539 117.767L232.039 120.131L233.9 123.672L238.4 121.308L236.539 117.767ZM242.121 117.767C240.373 116.849 238.287 116.849 236.539 117.767L238.4 121.308C238.982 121.002 239.678 121.002 240.26 121.308L242.121 117.767ZM246.621 120.131L242.121 117.767L240.26 121.308L244.76 123.672L246.621 120.131ZM249.522 118.022C249.803 119.656 248.088 120.902 246.621 120.131L244.76 123.672C249.162 125.985 254.306 122.247 253.465 117.346L249.522 118.022ZM249.455 117.632L249.522 118.022L253.465 117.346L253.398 116.955L249.455 117.632ZM249.522 115.93C249.577 116.249 249.558 116.535 249.492 116.786L253.361 117.801C253.572 116.998 253.616 116.135 253.465 115.254L249.522 115.93ZM248.735 111.341L249.522 115.93L253.465 115.254L252.677 110.664L248.735 111.341ZM250.391 107.709C249.594 108.485 249.041 109.454 248.77 110.5L252.642 111.505C252.732 111.156 252.916 110.833 253.182 110.574L250.391 107.709ZM254.025 104.169L250.391 107.709L253.182 110.574L256.816 107.035L254.025 104.169ZM254.562 102.225C254.741 102.892 254.593 103.616 254.025 104.169L256.816 107.035C258.503 105.391 258.949 103.141 258.426 101.19L254.562 102.225ZM252.916 98.6656C254.157 98.8458 254.87 100.065 254.565 101.18L258.424 102.235C259.309 98.997 257.306 95.2611 253.491 94.7071L252.916 98.6656ZM247.89 97.9357L252.916 98.6656L253.491 94.7071L248.465 93.9773L247.89 97.9357ZM243.373 94.6548C244.247 96.4251 245.936 97.652 247.89 97.9357L248.465 93.9773C247.814 93.8827 247.251 93.4737 246.959 92.8836L243.373 94.6548ZM241.123 90.0995L243.373 94.6548L246.959 92.8836L244.71 88.3284L241.123 90.0995Z" fill="white" mask="url(#path-14-outside-3_12_164)"/>
<g filter="url(#filter3_d_12_164)">
<path d="M235.888 89.2405C237.355 86.2688 241.593 86.2688 243.061 89.2406L245.31 93.7958C245.893 94.976 247.019 95.7939 248.322 95.9831L253.348 96.713C256.63 97.1895 257.94 101.223 255.564 103.537L251.931 107.076C250.987 107.995 250.557 109.32 250.78 110.618L251.638 115.619C252.199 118.886 248.77 121.378 245.835 119.836L241.335 117.472C240.17 116.86 238.779 116.86 237.614 117.472L233.114 119.836C230.179 121.378 226.75 118.886 227.311 115.619L228.169 110.618C228.392 109.32 227.961 107.995 227.018 107.076L223.384 103.537C221.009 101.223 222.319 97.1895 225.601 96.713L230.627 95.9831C231.929 95.7939 233.055 94.976 233.638 93.7958L235.888 89.2405Z" fill="url(#paint6_linear_12_164)"/>
</g>
<g filter="url(#filter4_dd_12_164)">
<path d="M116.93 153C116.562 153 116.242 152.864 115.97 152.592C115.698 152.32 115.562 152 115.562 151.632V136.848C115.562 136.48 115.698 136.16 115.97 135.888C116.242 135.616 116.562 135.48 116.93 135.48H118.418C118.786 135.48 119.098 135.616 119.354 135.888C119.626 136.16 119.762 136.48 119.762 136.848V149.424C119.762 149.552 119.834 149.616 119.978 149.616H125.81C126.178 149.616 126.498 149.752 126.77 150.024C127.042 150.296 127.178 150.616 127.178 150.984V151.632C127.178 152 127.042 152.32 126.77 152.592C126.498 152.864 126.178 153 125.81 153H116.93ZM131.578 153C131.21 153 130.89 152.864 130.618 152.592C130.362 152.32 130.234 152 130.234 151.632V136.848C130.234 136.48 130.362 136.16 130.618 135.888C130.89 135.616 131.21 135.48 131.578 135.48H140.074C140.442 135.48 140.754 135.616 141.01 135.888C141.282 136.16 141.418 136.48 141.418 136.848V137.4C141.418 137.768 141.282 138.088 141.01 138.36C140.754 138.632 140.442 138.768 140.074 138.768H134.506C134.378 138.768 134.314 138.832 134.314 138.96V142.128C134.314 142.272 134.378 142.344 134.506 142.344H139.594C139.962 142.344 140.274 142.48 140.53 142.752C140.802 143.024 140.938 143.344 140.938 143.712V144.072C140.938 144.44 140.802 144.76 140.53 145.032C140.274 145.304 139.962 145.44 139.594 145.44H134.506C134.378 145.44 134.314 145.504 134.314 145.632V149.52C134.314 149.648 134.378 149.712 134.506 149.712H140.074C140.442 149.712 140.754 149.848 141.01 150.12C141.282 150.392 141.418 150.712 141.418 151.08V151.632C141.418 152 141.282 152.32 141.01 152.592C140.754 152.864 140.442 153 140.074 153H131.578ZM151.076 139.032L149.324 145.92C149.308 145.968 149.316 146.016 149.348 146.064C149.396 146.096 149.444 146.112 149.492 146.112H152.708C152.756 146.112 152.796 146.096 152.828 146.064C152.876 146.016 152.892 145.968 152.876 145.92L151.124 139.032C151.124 139.016 151.116 139.008 151.1 139.008C151.084 139.008 151.076 139.016 151.076 139.032ZM144.668 153C144.332 153 144.06 152.864 143.852 152.592C143.66 152.32 143.62 152.024 143.732 151.704L148.58 136.776C148.708 136.392 148.932 136.08 149.252 135.84C149.588 135.6 149.956 135.48 150.356 135.48H151.94C152.356 135.48 152.732 135.6 153.068 135.84C153.404 136.08 153.628 136.392 153.74 136.776L158.564 151.704C158.676 152.024 158.628 152.32 158.42 152.592C158.228 152.864 157.964 153 157.628 153H156.02C155.62 153 155.26 152.88 154.94 152.64C154.62 152.384 154.412 152.064 154.316 151.68L153.74 149.4C153.724 149.272 153.644 149.208 153.5 149.208H148.7C148.572 149.208 148.492 149.272 148.46 149.4L147.884 151.68C147.788 152.064 147.58 152.384 147.26 152.64C146.94 152.88 146.58 153 146.18 153H144.668ZM164.757 138.792V149.688C164.757 149.832 164.829 149.92 164.973 149.952C165.293 150.016 165.677 150.048 166.125 150.048C167.741 150.048 168.933 149.576 169.701 148.632C170.485 147.688 170.877 146.144 170.877 144C170.877 142.08 170.485 140.672 169.701 139.776C168.917 138.88 167.725 138.432 166.125 138.432C165.677 138.432 165.293 138.464 164.973 138.528C164.829 138.56 164.757 138.648 164.757 138.792ZM162.117 153.048C161.733 153.016 161.413 152.856 161.157 152.568C160.901 152.264 160.773 151.912 160.773 151.512V136.968C160.773 136.568 160.901 136.224 161.157 135.936C161.413 135.632 161.733 135.464 162.117 135.432C163.365 135.304 164.597 135.24 165.813 135.24C168.677 135.24 170.885 136 172.437 137.52C173.989 139.04 174.765 141.2 174.765 144C174.765 147.04 173.989 149.344 172.437 150.912C170.885 152.464 168.677 153.24 165.813 153.24C164.597 153.24 163.365 153.176 162.117 153.048ZM178.688 153C178.32 153 178 152.864 177.728 152.592C177.472 152.32 177.344 152 177.344 151.632V136.848C177.344 136.48 177.472 136.16 177.728 135.888C178 135.616 178.32 135.48 178.688 135.48H187.184C187.552 135.48 187.864 135.616 188.12 135.888C188.392 136.16 188.528 136.48 188.528 136.848V137.4C188.528 137.768 188.392 138.088 188.12 138.36C187.864 138.632 187.552 138.768 187.184 138.768H181.616C181.488 138.768 181.424 138.832 181.424 138.96V142.128C181.424 142.272 181.488 142.344 181.616 142.344H186.704C187.072 142.344 187.384 142.48 187.64 142.752C187.912 143.024 188.048 143.344 188.048 143.712V144.072C188.048 144.44 187.912 144.76 187.64 145.032C187.384 145.304 187.072 145.44 186.704 145.44H181.616C181.488 145.44 181.424 145.504 181.424 145.632V149.52C181.424 149.648 181.488 149.712 181.616 149.712H187.184C187.552 149.712 187.864 149.848 188.12 150.12C188.392 150.392 188.528 150.712 188.528 151.08V151.632C188.528 152 188.392 152.32 188.12 152.592C187.864 152.864 187.552 153 187.184 153H178.688ZM195.953 138.696V143.304C195.953 143.448 196.017 143.52 196.145 143.52H197.297C198.417 143.52 199.273 143.288 199.865 142.824C200.457 142.344 200.753 141.68 200.753 140.832C200.753 139.168 199.657 138.336 197.465 138.336C196.969 138.336 196.537 138.368 196.169 138.432C196.025 138.464 195.953 138.552 195.953 138.696ZM193.313 153C192.945 153 192.625 152.864 192.353 152.592C192.081 152.32 191.945 152 191.945 151.632V136.968C191.945 136.568 192.073 136.224 192.329 135.936C192.601 135.648 192.929 135.488 193.313 135.456C194.737 135.312 196.201 135.24 197.705 135.24C200.105 135.24 201.889 135.696 203.057 136.608C204.241 137.504 204.833 138.784 204.833 140.448C204.833 141.52 204.521 142.488 203.897 143.352C203.273 144.2 202.457 144.808 201.449 145.176C201.433 145.176 201.425 145.184 201.425 145.2C201.425 145.232 201.441 145.248 201.473 145.248C202.257 145.696 202.921 146.64 203.465 148.08L204.833 151.728C204.945 152.032 204.905 152.32 204.713 152.592C204.521 152.864 204.265 153 203.945 153H202.481C202.065 153 201.689 152.88 201.353 152.64C201.017 152.4 200.785 152.088 200.657 151.704L199.457 148.248C199.233 147.576 198.961 147.12 198.641 146.88C198.321 146.64 197.825 146.52 197.153 146.52H196.145C196.017 146.52 195.953 146.592 195.953 146.736V151.632C195.953 152 195.817 152.32 195.545 152.592C195.273 152.864 194.953 153 194.585 153H193.313ZM211.609 145.56V149.784C211.609 149.928 211.681 150.016 211.825 150.048C212.161 150.112 212.569 150.144 213.049 150.144C214.185 150.144 215.017 149.936 215.545 149.52C216.073 149.088 216.337 148.432 216.337 147.552C216.337 146.08 215.137 145.344 212.737 145.344H211.801C211.673 145.344 211.609 145.416 211.609 145.56ZM211.609 138.696V142.224C211.609 142.352 211.673 142.416 211.801 142.416H212.401C214.737 142.416 215.905 141.72 215.905 140.328C215.905 139 214.929 138.336 212.977 138.336C212.513 138.336 212.121 138.368 211.801 138.432C211.673 138.464 211.609 138.552 211.609 138.696ZM208.945 153.048C208.561 153.016 208.241 152.848 207.985 152.544C207.729 152.24 207.601 151.896 207.601 151.512V136.968C207.601 136.568 207.729 136.224 207.985 135.936C208.257 135.632 208.585 135.464 208.969 135.432C210.217 135.304 211.441 135.24 212.641 135.24C217.281 135.24 219.601 136.736 219.601 139.728C219.601 140.736 219.273 141.592 218.617 142.296C217.977 143 217.113 143.448 216.025 143.64C216.009 143.64 216.001 143.656 216.001 143.688C216.001 143.704 216.017 143.712 216.049 143.712C217.313 143.888 218.313 144.368 219.049 145.152C219.801 145.936 220.177 146.872 220.177 147.96C220.177 149.736 219.585 151.064 218.401 151.944C217.233 152.808 215.393 153.24 212.881 153.24C211.617 153.24 210.305 153.176 208.945 153.048ZM233.902 144.24C233.902 140.48 232.558 138.6 229.87 138.6C227.182 138.6 225.838 140.48 225.838 144.24C225.838 148 227.182 149.88 229.87 149.88C232.558 149.88 233.902 148 233.902 144.24ZM235.87 150.864C234.398 152.448 232.398 153.24 229.87 153.24C227.342 153.24 225.342 152.448 223.87 150.864C222.398 149.264 221.662 147.056 221.662 144.24C221.662 141.424 222.398 139.224 223.87 137.64C225.342 136.04 227.342 135.24 229.87 135.24C232.398 135.24 234.398 136.04 235.87 137.64C237.342 139.224 238.078 141.424 238.078 144.24C238.078 147.056 237.342 149.264 235.87 150.864ZM246.162 139.032L244.41 145.92C244.394 145.968 244.402 146.016 244.434 146.064C244.482 146.096 244.53 146.112 244.578 146.112H247.794C247.842 146.112 247.882 146.096 247.914 146.064C247.962 146.016 247.978 145.968 247.962 145.92L246.21 139.032C246.21 139.016 246.202 139.008 246.186 139.008C246.17 139.008 246.162 139.016 246.162 139.032ZM239.754 153C239.418 153 239.146 152.864 238.938 152.592C238.746 152.32 238.706 152.024 238.818 151.704L243.666 136.776C243.794 136.392 244.018 136.08 244.338 135.84C244.674 135.6 245.042 135.48 245.442 135.48H247.026C247.442 135.48 247.818 135.6 248.154 135.84C248.49 136.08 248.714 136.392 248.826 136.776L253.65 151.704C253.762 152.024 253.714 152.32 253.506 152.592C253.314 152.864 253.05 153 252.714 153H251.106C250.706 153 250.346 152.88 250.026 152.64C249.706 152.384 249.498 152.064 249.402 151.68L248.826 149.4C248.81 149.272 248.73 149.208 248.586 149.208H243.786C243.658 149.208 243.578 149.272 243.546 149.4L242.97 151.68C242.874 152.064 242.666 152.384 242.346 152.64C242.026 152.88 241.666 153 241.266 153H239.754ZM259.867 138.696V143.304C259.867 143.448 259.931 143.52 260.059 143.52H261.211C262.331 143.52 263.187 143.288 263.779 142.824C264.371 142.344 264.667 141.68 264.667 140.832C264.667 139.168 263.571 138.336 261.379 138.336C260.883 138.336 260.451 138.368 260.083 138.432C259.939 138.464 259.867 138.552 259.867 138.696ZM257.227 153C256.859 153 256.539 152.864 256.267 152.592C255.995 152.32 255.859 152 255.859 151.632V136.968C255.859 136.568 255.987 136.224 256.243 135.936C256.515 135.648 256.843 135.488 257.227 135.456C258.651 135.312 260.115 135.24 261.619 135.24C264.019 135.24 265.803 135.696 266.971 136.608C268.155 137.504 268.747 138.784 268.747 140.448C268.747 141.52 268.435 142.488 267.811 143.352C267.187 144.2 266.371 144.808 265.363 145.176C265.347 145.176 265.339 145.184 265.339 145.2C265.339 145.232 265.355 145.248 265.387 145.248C266.171 145.696 266.835 146.64 267.379 148.08L268.747 151.728C268.859 152.032 268.819 152.32 268.627 152.592C268.435 152.864 268.179 153 267.859 153H266.395C265.979 153 265.603 152.88 265.267 152.64C264.931 152.4 264.699 152.088 264.571 151.704L263.371 148.248C263.147 147.576 262.875 147.12 262.555 146.88C262.235 146.64 261.739 146.52 261.067 146.52H260.059C259.931 146.52 259.867 146.592 259.867 146.736V151.632C259.867 152 259.731 152.32 259.459 152.592C259.187 152.864 258.867 153 258.499 153H257.227ZM275.499 138.792V149.688C275.499 149.832 275.571 149.92 275.715 149.952C276.035 150.016 276.419 150.048 276.867 150.048C278.483 150.048 279.675 149.576 280.443 148.632C281.227 147.688 281.619 146.144 281.619 144C281.619 142.08 281.227 140.672 280.443 139.776C279.659 138.88 278.467 138.432 276.867 138.432C276.419 138.432 276.035 138.464 275.715 138.528C275.571 138.56 275.499 138.648 275.499 138.792ZM272.859 153.048C272.475 153.016 272.155 152.856 271.899 152.568C271.643 152.264 271.515 151.912 271.515 151.512V136.968C271.515 136.568 271.643 136.224 271.899 135.936C272.155 135.632 272.475 135.464 272.859 135.432C274.107 135.304 275.339 135.24 276.555 135.24C279.419 135.24 281.627 136 283.179 137.52C284.731 139.04 285.507 141.2 285.507 144C285.507 147.04 284.731 149.344 283.179 150.912C281.627 152.464 279.419 153.24 276.555 153.24C275.339 153.24 274.107 153.176 272.859 153.048Z" fill="white"/>
</g>
<defs>
<filter id="filter0_d_12_164" x="0.216502" y="103.508" width="412.536" height="78.2449" filterUnits="userSpaceOnUse" color-interpolation-filters="sRGB">
<feFlood flood-opacity="0" result="BackgroundImageFix"/>
<feColorMatrix in="SourceAlpha" type="matrix" values="0 0 0 0 0 0 0 0 0 0 0 0 0 0 0 0 0 0 127 0" result="hardAlpha"/>
<feOffset dx="5.48449" dy="5.48449"/>
<feGaussianBlur stdDeviation="3.13399"/>
<feComposite in2="hardAlpha" operator="out"/>
<feColorMatrix type="matrix" values="0 0 0 0 0 0 0 0 0 0 0 0 0 0 0 0 0 0 0.3 0"/>
<feBlend mode="normal" in2="BackgroundImageFix" result="effect1_dropShadow_12_164"/>
<feBlend mode="normal" in="SourceGraphic" in2="effect1_dropShadow_12_164" result="shape"/>
</filter>
<filter id="filter1_d_12_164" x="178.776" y="70.0336" width="43.366" height="44.618" filterUnits="userSpaceOnUse" color-interpolation-filters="sRGB">
<feFlood flood-opacity="0" result="BackgroundImageFix"/>
<feColorMatrix in="SourceAlpha" type="matrix" values="0 0 0 0 0 0 0 0 0 0 0 0 0 0 0 0 0 0 127 0" result="hardAlpha"/>
<feOffset dy="3"/>
<feComposite in2="hardAlpha" operator="out"/>
<feColorMatrix type="matrix" values="0 0 0 0 1 0 0 0 0 0.392 0 0 0 0 0.2 0 0 0 1 0"/>
<feBlend mode="normal" in2="BackgroundImageFix" result="effect1_dropShadow_12_164"/>
<feBlend mode="normal" in="SourceGraphic" in2="effect1_dropShadow_12_164" result="shape"/>
</filter>
<filter id="filter2_d_12_164" x="143.222" y="87.0117" width="34.6066" height="36.2925" filterUnits="userSpaceOnUse" color-interpolation-filters="sRGB">
<feFlood flood-opacity="0" result="BackgroundImageFix"/>
<feColorMatrix in="SourceAlpha" type="matrix" values="0 0 0 0 0 0 0 0 0 0 0 0 0 0 0 0 0 0 127 0" result="hardAlpha"/>
<feOffset dy="3"/>
<feComposite in2="hardAlpha" operator="out"/>
<feColorMatrix type="matrix" values="0 0 0 0 1 0 0 0 0 0.392 0 0 0 0 0.2 0 0 0 1 0"/>
<feBlend mode="normal" in2="BackgroundImageFix" result="effect1_dropShadow_12_164"/>
<feBlend mode="normal" in="SourceGraphic" in2="effect1_dropShadow_12_164" result="shape"/>
</filter>
<filter id="filter3_d_12_164" x="222.171" y="87.0117" width="34.6066" height="36.2925" filterUnits="userSpaceOnUse" color-interpolation-filters="sRGB">
<feFlood flood-opacity="0" result="BackgroundImageFix"/>
<feColorMatrix in="SourceAlpha" type="matrix" values="0 0 0 0 0 0 0 0 0 0 0 0 0 0 0 0 0 0 127 0" result="hardAlpha"/>
<feOffset dy="3"/>
<feComposite in2="hardAlpha" operator="out"/>
<feColorMatrix type="matrix" values="0 0 0 0 1 0 0 0 0 0.392 0 0 0 0 0.2 0 0 0 1 0"/>
<feBlend mode="normal" in2="BackgroundImageFix" result="effect1_dropShadow_12_164"/>
<feBlend mode="normal" in="SourceGraphic" in2="effect1_dropShadow_12_164" result="shape"/>
</filter>
<filter id="filter4_dd_12_164" x="107.562" y="129.24" width="185.945" height="34" filterUnits="userSpaceOnUse" color-interpolation-filters="sRGB">
<feFlood flood-opacity="0" result="BackgroundImageFix"/>
<feColorMatrix in="SourceAlpha" type="matrix" values="0 0 0 0 0 0 0 0 0 0 0 0 0 0 0 0 0 0 127 0" result="hardAlpha"/>
<feOffset dy="2"/>
<feGaussianBlur stdDeviation="4"/>
<feColorMatrix type="matrix" values="0 0 0 0 0 0 0 0 0 0 0 0 0 0 0 0 0 0 0.25 0"/>
<feBlend mode="normal" in2="BackgroundImageFix" result="effect1_dropShadow_12_164"/>
<feColorMatrix in="SourceAlpha" type="matrix" values="0 0 0 0 0 0 0 0 0 0 0 0 0 0 0 0 0 0 127 0" result="hardAlpha"/>
<feOffset dy="2"/>
<feColorMatrix type="matrix" values="0 0 0 0 0.308333 0 0 0 0 0.308333 0 0 0 0 0.308333 0 0 0 0.6 0"/>
<feBlend mode="normal" in2="effect1_dropShadow_12_164" result="effect2_dropShadow_12_164"/>
<feBlend mode="normal" in="SourceGraphic" in2="effect2_dropShadow_12_164" result="shape"/>
</filter>
<radialGradient id="paint0_radial_12_164" cx="0" cy="0" r="1" gradientUnits="userSpaceOnUse" gradientTransform="translate(201.486 65.1815) rotate(89.8427) scale(54.4633 123.309)">
<stop stop-color="#FFEE37" stop-opacity="0.56"/>
<stop offset="1" stop-color="#FFF8AC" stop-opacity="0"/>
</radialGradient>
<linearGradient id="paint1_linear_12_164" x1="200.286" y1="65.9113" x2="200.286" y2="119.492" gradientUnits="userSpaceOnUse">
<stop offset="0.25" stop-color="#FFEE37"/>
<stop offset="1" stop-color="#F78A3B"/>
</linearGradient>
<linearGradient id="paint2_linear_12_164" x1="200.459" y1="65" x2="200.459" y2="120.226" gradientUnits="userSpaceOnUse">
<stop offset="0.25" stop-color="#FFEE37"/>
<stop offset="1" stop-color="#F78A3B"/>
</linearGradient>
<linearGradient id="paint3_linear_12_164" x1="160.381" y1="83.7054" x2="160.381" y2="126.67" gradientUnits="userSpaceOnUse">
<stop offset="0.25" stop-color="#FFEE37"/>
<stop offset="1" stop-color="#F78A3B"/>
</linearGradient>
<linearGradient id="paint4_linear_12_164" x1="160.526" y1="81.9781" x2="160.526" y2="128" gradientUnits="userSpaceOnUse">
<stop offset="0.25" stop-color="#FFEE37"/>
<stop offset="1" stop-color="#F78A3B"/>
</linearGradient>
<linearGradient id="paint5_linear_12_164" x1="239.33" y1="83.7054" x2="239.33" y2="126.67" gradientUnits="userSpaceOnUse">
<stop offset="0.25" stop-color="#FFEE37"/>
<stop offset="1" stop-color="#F78A3B"/>
</linearGradient>
<linearGradient id="paint6_linear_12_164" x1="239.474" y1="81.9781" x2="239.474" y2="128" gradientUnits="userSpaceOnUse">
<stop offset="0.25" stop-color="#FFEE37"/>
<stop offset="1" stop-color="#F78A3B"/>
</linearGradient>
</defs>
</svg>
