<svg width="413" height="183" viewBox="0 0 413 183" fill="none" xmlns="http://www.w3.org/2000/svg">
<g filter="url(#filter0_d_12_201)">
<path d="M91.3459 105L91.3459 154.362L17.3301 154.362L39.0522 129.681L1.00012 105L91.3459 105Z" fill="#E0263B"/>
<path d="M310.654 105L310.654 154.362L384.67 154.362L362.948 129.681L401 105L310.654 105Z" fill="#E0263B"/>
<path d="M69.8921 114.29L91.346 105V165.901H69.8921V114.29Z" fill="#493A52"/>
<path d="M332.108 114.29L310.654 105V165.901H332.108V114.29Z" fill="#493A52"/>
<path d="M224 113.747L224 170.747L73.6749 170.747C73.6749 170.747 60 170.747 60 142.247C60 113.747 73.6749 113.747 73.6749 113.747L224 113.747Z" fill="#B51F30"/>
<path d="M224 113.747L224 170.747L331.327 170.747C331.327 170.747 341 170.747 341 142.247C341 113.747 331.327 113.747 331.327 113.747L224 113.747Z" fill="#B51F30"/>
</g>
<path d="M78.2809 103.008L182.512 110.266L186.285 110.256L324.944 119.306L322.033 89.6067L231.045 96.9297L315.854 71.7049L288.884 38.2992L223.472 86.5764L270.029 18.4371L214.028 0.379781L204.139 86.6295L186.285 0.379787L138.029 12.3798L186.229 89.9795L116.276 30.2852L96.0688 55.3327L182.476 97.063L83.8747 79.4149L78.2809 103.008Z" fill="url(#paint0_radial_12_201)" fill-opacity="0.2"/>
<g filter="url(#filter1_d_12_201)">
<path d="M244.898 113L160.022 112.382L263.35 54.2727L244.898 113Z" fill="url(#paint1_linear_12_201)" stroke="url(#paint2_linear_12_201)"/>
<path d="M200.615 18.4182L244.283 113H157.562L200.615 18.4182Z" fill="url(#paint3_linear_12_201)"/>
<g filter="url(#filter2_f_12_201)">
<path d="M178.473 67.8727C180.934 60.4545 182.779 53.6545 195.695 29.5454C191.389 42.5273 182.779 61.6909 178.473 67.8727Z" fill="white"/>
</g>
<g filter="url(#filter3_f_12_201)">
<path d="M231.367 113C201.845 110.527 182.163 95.6909 174.783 76.5272C195.694 73.4363 228.624 101.6 231.367 113Z" fill="#C66329"/>
</g>
<path d="M157.562 113H230.137L139.111 54.2727L157.562 113Z" fill="url(#paint4_linear_12_201)" stroke="url(#paint5_linear_12_201)"/>
<path d="M207.746 19.0364C207.746 23.3379 204.277 26.8227 200 26.8227C195.723 26.8227 192.254 23.3379 192.254 19.0364C192.254 14.7349 195.723 11.25 200 11.25C204.277 11.25 207.746 14.7349 207.746 19.0364Z" fill="url(#paint6_linear_12_201)" stroke="url(#paint7_linear_12_201)" stroke-width="0.5"/>
<path d="M269.25 54.8909C269.25 58.5096 266.332 61.4409 262.734 61.4409C259.137 61.4409 256.219 58.5096 256.219 54.8909C256.219 51.2722 259.137 48.3409 262.734 48.3409C266.332 48.3409 269.25 51.2722 269.25 54.8909Z" fill="url(#paint8_linear_12_201)" stroke="url(#paint9_linear_12_201)" stroke-width="0.5"/>
<circle cx="6.78277" cy="6.78277" r="6.53277" transform="matrix(0.705305 -0.708904 0.705306 0.708903 130.5 54.8909)" fill="url(#paint10_linear_12_201)" stroke="url(#paint11_linear_12_201)" stroke-width="0.5"/>
</g>
<g filter="url(#filter4_dd_12_201)">
<path d="M116.93 152C116.562 152 116.242 151.864 115.97 151.592C115.698 151.32 115.562 151 115.562 150.632V135.848C115.562 135.48 115.698 135.16 115.97 134.888C116.242 134.616 116.562 134.48 116.93 134.48H118.418C118.786 134.48 119.098 134.616 119.354 134.888C119.626 135.16 119.762 135.48 119.762 135.848V148.424C119.762 148.552 119.834 148.616 119.978 148.616H125.81C126.178 148.616 126.498 148.752 126.77 149.024C127.042 149.296 127.178 149.616 127.178 149.984V150.632C127.178 151 127.042 151.32 126.77 151.592C126.498 151.864 126.178 152 125.81 152H116.93ZM131.578 152C131.21 152 130.89 151.864 130.618 151.592C130.362 151.32 130.234 151 130.234 150.632V135.848C130.234 135.48 130.362 135.16 130.618 134.888C130.89 134.616 131.21 134.48 131.578 134.48H140.074C140.442 134.48 140.754 134.616 141.01 134.888C141.282 135.16 141.418 135.48 141.418 135.848V136.4C141.418 136.768 141.282 137.088 141.01 137.36C140.754 137.632 140.442 137.768 140.074 137.768H134.506C134.378 137.768 134.314 137.832 134.314 137.96V141.128C134.314 141.272 134.378 141.344 134.506 141.344H139.594C139.962 141.344 140.274 141.48 140.53 141.752C140.802 142.024 140.938 142.344 140.938 142.712V143.072C140.938 143.44 140.802 143.76 140.53 144.032C140.274 144.304 139.962 144.44 139.594 144.44H134.506C134.378 144.44 134.314 144.504 134.314 144.632V148.52C134.314 148.648 134.378 148.712 134.506 148.712H140.074C140.442 148.712 140.754 148.848 141.01 149.12C141.282 149.392 141.418 149.712 141.418 150.08V150.632C141.418 151 141.282 151.32 141.01 151.592C140.754 151.864 140.442 152 140.074 152H131.578ZM151.076 138.032L149.324 144.92C149.308 144.968 149.316 145.016 149.348 145.064C149.396 145.096 149.444 145.112 149.492 145.112H152.708C152.756 145.112 152.796 145.096 152.828 145.064C152.876 145.016 152.892 144.968 152.876 144.92L151.124 138.032C151.124 138.016 151.116 138.008 151.1 138.008C151.084 138.008 151.076 138.016 151.076 138.032ZM144.668 152C144.332 152 144.06 151.864 143.852 151.592C143.66 151.32 143.62 151.024 143.732 150.704L148.58 135.776C148.708 135.392 148.932 135.08 149.252 134.84C149.588 134.6 149.956 134.48 150.356 134.48H151.94C152.356 134.48 152.732 134.6 153.068 134.84C153.404 135.08 153.628 135.392 153.74 135.776L158.564 150.704C158.676 151.024 158.628 151.32 158.42 151.592C158.228 151.864 157.964 152 157.628 152H156.02C155.62 152 155.26 151.88 154.94 151.64C154.62 151.384 154.412 151.064 154.316 150.68L153.74 148.4C153.724 148.272 153.644 148.208 153.5 148.208H148.7C148.572 148.208 148.492 148.272 148.46 148.4L147.884 150.68C147.788 151.064 147.58 151.384 147.26 151.64C146.94 151.88 146.58 152 146.18 152H144.668ZM164.757 137.792V148.688C164.757 148.832 164.829 148.92 164.973 148.952C165.293 149.016 165.677 149.048 166.125 149.048C167.741 149.048 168.933 148.576 169.701 147.632C170.485 146.688 170.877 145.144 170.877 143C170.877 141.08 170.485 139.672 169.701 138.776C168.917 137.88 167.725 137.432 166.125 137.432C165.677 137.432 165.293 137.464 164.973 137.528C164.829 137.56 164.757 137.648 164.757 137.792ZM162.117 152.048C161.733 152.016 161.413 151.856 161.157 151.568C160.901 151.264 160.773 150.912 160.773 150.512V135.968C160.773 135.568 160.901 135.224 161.157 134.936C161.413 134.632 161.733 134.464 162.117 134.432C163.365 134.304 164.597 134.24 165.813 134.24C168.677 134.24 170.885 135 172.437 136.52C173.989 138.04 174.765 140.2 174.765 143C174.765 146.04 173.989 148.344 172.437 149.912C170.885 151.464 168.677 152.24 165.813 152.24C164.597 152.24 163.365 152.176 162.117 152.048ZM178.688 152C178.32 152 178 151.864 177.728 151.592C177.472 151.32 177.344 151 177.344 150.632V135.848C177.344 135.48 177.472 135.16 177.728 134.888C178 134.616 178.32 134.48 178.688 134.48H187.184C187.552 134.48 187.864 134.616 188.12 134.888C188.392 135.16 188.528 135.48 188.528 135.848V136.4C188.528 136.768 188.392 137.088 188.12 137.36C187.864 137.632 187.552 137.768 187.184 137.768H181.616C181.488 137.768 181.424 137.832 181.424 137.96V141.128C181.424 141.272 181.488 141.344 181.616 141.344H186.704C187.072 141.344 187.384 141.48 187.64 141.752C187.912 142.024 188.048 142.344 188.048 142.712V143.072C188.048 143.44 187.912 143.76 187.64 144.032C187.384 144.304 187.072 144.44 186.704 144.44H181.616C181.488 144.44 181.424 144.504 181.424 144.632V148.52C181.424 148.648 181.488 148.712 181.616 148.712H187.184C187.552 148.712 187.864 148.848 188.12 149.12C188.392 149.392 188.528 149.712 188.528 150.08V150.632C188.528 151 188.392 151.32 188.12 151.592C187.864 151.864 187.552 152 187.184 152H178.688ZM195.953 137.696V142.304C195.953 142.448 196.017 142.52 196.145 142.52H197.297C198.417 142.52 199.273 142.288 199.865 141.824C200.457 141.344 200.753 140.68 200.753 139.832C200.753 138.168 199.657 137.336 197.465 137.336C196.969 137.336 196.537 137.368 196.169 137.432C196.025 137.464 195.953 137.552 195.953 137.696ZM193.313 152C192.945 152 192.625 151.864 192.353 151.592C192.081 151.32 191.945 151 191.945 150.632V135.968C191.945 135.568 192.073 135.224 192.329 134.936C192.601 134.648 192.929 134.488 193.313 134.456C194.737 134.312 196.201 134.24 197.705 134.24C200.105 134.24 201.889 134.696 203.057 135.608C204.241 136.504 204.833 137.784 204.833 139.448C204.833 140.52 204.521 141.488 203.897 142.352C203.273 143.2 202.457 143.808 201.449 144.176C201.433 144.176 201.425 144.184 201.425 144.2C201.425 144.232 201.441 144.248 201.473 144.248C202.257 144.696 202.921 145.64 203.465 147.08L204.833 150.728C204.945 151.032 204.905 151.32 204.713 151.592C204.521 151.864 204.265 152 203.945 152H202.481C202.065 152 201.689 151.88 201.353 151.64C201.017 151.4 200.785 151.088 200.657 150.704L199.457 147.248C199.233 146.576 198.961 146.12 198.641 145.88C198.321 145.64 197.825 145.52 197.153 145.52H196.145C196.017 145.52 195.953 145.592 195.953 145.736V150.632C195.953 151 195.817 151.32 195.545 151.592C195.273 151.864 194.953 152 194.585 152H193.313ZM211.609 144.56V148.784C211.609 148.928 211.681 149.016 211.825 149.048C212.161 149.112 212.569 149.144 213.049 149.144C214.185 149.144 215.017 148.936 215.545 148.52C216.073 148.088 216.337 147.432 216.337 146.552C216.337 145.08 215.137 144.344 212.737 144.344H211.801C211.673 144.344 211.609 144.416 211.609 144.56ZM211.609 137.696V141.224C211.609 141.352 211.673 141.416 211.801 141.416H212.401C214.737 141.416 215.905 140.72 215.905 139.328C215.905 138 214.929 137.336 212.977 137.336C212.513 137.336 212.121 137.368 211.801 137.432C211.673 137.464 211.609 137.552 211.609 137.696ZM208.945 152.048C208.561 152.016 208.241 151.848 207.985 151.544C207.729 151.24 207.601 150.896 207.601 150.512V135.968C207.601 135.568 207.729 135.224 207.985 134.936C208.257 134.632 208.585 134.464 208.969 134.432C210.217 134.304 211.441 134.24 212.641 134.24C217.281 134.24 219.601 135.736 219.601 138.728C219.601 139.736 219.273 140.592 218.617 141.296C217.977 142 217.113 142.448 216.025 142.64C216.009 142.64 216.001 142.656 216.001 142.688C216.001 142.704 216.017 142.712 216.049 142.712C217.313 142.888 218.313 143.368 219.049 144.152C219.801 144.936 220.177 145.872 220.177 146.96C220.177 148.736 219.585 150.064 218.401 150.944C217.233 151.808 215.393 152.24 212.881 152.24C211.617 152.24 210.305 152.176 208.945 152.048ZM233.902 143.24C233.902 139.48 232.558 137.6 229.87 137.6C227.182 137.6 225.838 139.48 225.838 143.24C225.838 147 227.182 148.88 229.87 148.88C232.558 148.88 233.902 147 233.902 143.24ZM235.87 149.864C234.398 151.448 232.398 152.24 229.87 152.24C227.342 152.24 225.342 151.448 223.87 149.864C222.398 148.264 221.662 146.056 221.662 143.24C221.662 140.424 222.398 138.224 223.87 136.64C225.342 135.04 227.342 134.24 229.87 134.24C232.398 134.24 234.398 135.04 235.87 136.64C237.342 138.224 238.078 140.424 238.078 143.24C238.078 146.056 237.342 148.264 235.87 149.864ZM246.162 138.032L244.41 144.92C244.394 144.968 244.402 145.016 244.434 145.064C244.482 145.096 244.53 145.112 244.578 145.112H247.794C247.842 145.112 247.882 145.096 247.914 145.064C247.962 145.016 247.978 144.968 247.962 144.92L246.21 138.032C246.21 138.016 246.202 138.008 246.186 138.008C246.17 138.008 246.162 138.016 246.162 138.032ZM239.754 152C239.418 152 239.146 151.864 238.938 151.592C238.746 151.32 238.706 151.024 238.818 150.704L243.666 135.776C243.794 135.392 244.018 135.08 244.338 134.84C244.674 134.6 245.042 134.48 245.442 134.48H247.026C247.442 134.48 247.818 134.6 248.154 134.84C248.49 135.08 248.714 135.392 248.826 135.776L253.65 150.704C253.762 151.024 253.714 151.32 253.506 151.592C253.314 151.864 253.05 152 252.714 152H251.106C250.706 152 250.346 151.88 250.026 151.64C249.706 151.384 249.498 151.064 249.402 150.68L248.826 148.4C248.81 148.272 248.73 148.208 248.586 148.208H243.786C243.658 148.208 243.578 148.272 243.546 148.4L242.97 150.68C242.874 151.064 242.666 151.384 242.346 151.64C242.026 151.88 241.666 152 241.266 152H239.754ZM259.867 137.696V142.304C259.867 142.448 259.931 142.52 260.059 142.52H261.211C262.331 142.52 263.187 142.288 263.779 141.824C264.371 141.344 264.667 140.68 264.667 139.832C264.667 138.168 263.571 137.336 261.379 137.336C260.883 137.336 260.451 137.368 260.083 137.432C259.939 137.464 259.867 137.552 259.867 137.696ZM257.227 152C256.859 152 256.539 151.864 256.267 151.592C255.995 151.32 255.859 151 255.859 150.632V135.968C255.859 135.568 255.987 135.224 256.243 134.936C256.515 134.648 256.843 134.488 257.227 134.456C258.651 134.312 260.115 134.24 261.619 134.24C264.019 134.24 265.803 134.696 266.971 135.608C268.155 136.504 268.747 137.784 268.747 139.448C268.747 140.52 268.435 141.488 267.811 142.352C267.187 143.2 266.371 143.808 265.363 144.176C265.347 144.176 265.339 144.184 265.339 144.2C265.339 144.232 265.355 144.248 265.387 144.248C266.171 144.696 266.835 145.64 267.379 147.08L268.747 150.728C268.859 151.032 268.819 151.32 268.627 151.592C268.435 151.864 268.179 152 267.859 152H266.395C265.979 152 265.603 151.88 265.267 151.64C264.931 151.4 264.699 151.088 264.571 150.704L263.371 147.248C263.147 146.576 262.875 146.12 262.555 145.88C262.235 145.64 261.739 145.52 261.067 145.52H260.059C259.931 145.52 259.867 145.592 259.867 145.736V150.632C259.867 151 259.731 151.32 259.459 151.592C259.187 151.864 258.867 152 258.499 152H257.227ZM275.499 137.792V148.688C275.499 148.832 275.571 148.92 275.715 148.952C276.035 149.016 276.419 149.048 276.867 149.048C278.483 149.048 279.675 148.576 280.443 147.632C281.227 146.688 281.619 145.144 281.619 143C281.619 141.08 281.227 139.672 280.443 138.776C279.659 137.88 278.467 137.432 276.867 137.432C276.419 137.432 276.035 137.464 275.715 137.528C275.571 137.56 275.499 137.648 275.499 137.792ZM272.859 152.048C272.475 152.016 272.155 151.856 271.899 151.568C271.643 151.264 271.515 150.912 271.515 150.512V135.968C271.515 135.568 271.643 135.224 271.899 134.936C272.155 134.632 272.475 134.464 272.859 134.432C274.107 134.304 275.339 134.24 276.555 134.24C279.419 134.24 281.627 135 283.179 136.52C284.731 138.04 285.507 140.2 285.507 143C285.507 146.04 284.731 148.344 283.179 149.912C281.627 151.464 279.419 152.24 276.555 152.24C275.339 152.24 274.107 152.176 272.859 152.048Z" fill="white"/>
</g>
<defs>
<filter id="filter0_d_12_201" x="0.216502" y="104.217" width="412.536" height="78.536" filterUnits="userSpaceOnUse" color-interpolation-filters="sRGB">
<feFlood flood-opacity="0" result="BackgroundImageFix"/>
<feColorMatrix in="SourceAlpha" type="matrix" values="0 0 0 0 0 0 0 0 0 0 0 0 0 0 0 0 0 0 127 0" result="hardAlpha"/>
<feOffset dx="5.48449" dy="5.48449"/>
<feGaussianBlur stdDeviation="3.13399"/>
<feComposite in2="hardAlpha" operator="out"/>
<feColorMatrix type="matrix" values="0 0 0 0 0 0 0 0 0 0 0 0 0 0 0 0 0 0 0.3 0"/>
<feBlend mode="normal" in2="BackgroundImageFix" result="effect1_dropShadow_12_201"/>
<feBlend mode="normal" in="SourceGraphic" in2="effect1_dropShadow_12_201" result="shape"/>
</filter>
<filter id="filter1_d_12_201" x="123.302" y="5" width="156.198" height="122.503" filterUnits="userSpaceOnUse" color-interpolation-filters="sRGB">
<feFlood flood-opacity="0" result="BackgroundImageFix"/>
<feColorMatrix in="SourceAlpha" type="matrix" values="0 0 0 0 0 0 0 0 0 0 0 0 0 0 0 0 0 0 127 0" result="hardAlpha"/>
<feOffset dy="4"/>
<feGaussianBlur stdDeviation="5"/>
<feComposite in2="hardAlpha" operator="out"/>
<feColorMatrix type="matrix" values="0 0 0 0 0 0 0 0 0 0 0 0 0 0 0 0 0 0 0.4 0"/>
<feBlend mode="normal" in2="BackgroundImageFix" result="effect1_dropShadow_12_201"/>
<feBlend mode="normal" in="SourceGraphic" in2="effect1_dropShadow_12_201" result="shape"/>
</filter>
<filter id="filter2_f_12_201" x="176.473" y="27.5454" width="21.2212" height="42.3273" filterUnits="userSpaceOnUse" color-interpolation-filters="sRGB">
<feFlood flood-opacity="0" result="BackgroundImageFix"/>
<feBlend mode="normal" in="SourceGraphic" in2="BackgroundImageFix" result="shape"/>
<feGaussianBlur stdDeviation="1" result="effect1_foregroundBlur_12_201"/>
</filter>
<filter id="filter3_f_12_201" x="164.783" y="66.2918" width="76.5842" height="56.7082" filterUnits="userSpaceOnUse" color-interpolation-filters="sRGB">
<feFlood flood-opacity="0" result="BackgroundImageFix"/>
<feBlend mode="normal" in="SourceGraphic" in2="BackgroundImageFix" result="shape"/>
<feGaussianBlur stdDeviation="5" result="effect1_foregroundBlur_12_201"/>
</filter>
<filter id="filter4_dd_12_201" x="107.562" y="128.24" width="185.945" height="34" filterUnits="userSpaceOnUse" color-interpolation-filters="sRGB">
<feFlood flood-opacity="0" result="BackgroundImageFix"/>
<feColorMatrix in="SourceAlpha" type="matrix" values="0 0 0 0 0 0 0 0 0 0 0 0 0 0 0 0 0 0 127 0" result="hardAlpha"/>
<feOffset dy="2"/>
<feGaussianBlur stdDeviation="4"/>
<feColorMatrix type="matrix" values="0 0 0 0 0 0 0 0 0 0 0 0 0 0 0 0 0 0 0.25 0"/>
<feBlend mode="normal" in2="BackgroundImageFix" result="effect1_dropShadow_12_201"/>
<feColorMatrix in="SourceAlpha" type="matrix" values="0 0 0 0 0 0 0 0 0 0 0 0 0 0 0 0 0 0 127 0" result="hardAlpha"/>
<feOffset dy="2"/>
<feColorMatrix type="matrix" values="0 0 0 0 0.308333 0 0 0 0 0.308333 0 0 0 0 0.308333 0 0 0 0.6 0"/>
<feBlend mode="normal" in2="effect1_dropShadow_12_201" result="effect2_dropShadow_12_201"/>
<feBlend mode="normal" in="SourceGraphic" in2="effect2_dropShadow_12_201" result="shape"/>
</filter>
<radialGradient id="paint0_radial_12_201" cx="0" cy="0" r="1" gradientUnits="userSpaceOnUse" gradientTransform="translate(201.486 65.1815) rotate(89.8427) scale(54.4633 123.309)">
<stop stop-color="#FFEE37" stop-opacity="0.56"/>
<stop offset="1" stop-color="#FFF8AC" stop-opacity="0"/>
</radialGradient>
<linearGradient id="paint1_linear_12_201" x1="201.23" y1="112.382" x2="259.927" y2="59.5154" gradientUnits="userSpaceOnUse">
<stop stop-color="#FFE508"/>
<stop offset="1" stop-color="#E87A03"/>
</linearGradient>
<linearGradient id="paint2_linear_12_201" x1="231.982" y1="70.3455" x2="236.942" y2="79.5972" gradientUnits="userSpaceOnUse">
<stop stop-color="#FFBB5B"/>
<stop offset="1" stop-color="#FFBC7D" stop-opacity="0"/>
</linearGradient>
<linearGradient id="paint3_linear_12_201" x1="204.305" y1="43.7636" x2="222.313" y2="114.193" gradientUnits="userSpaceOnUse">
<stop stop-color="#FFE408"/>
<stop offset="1" stop-color="#E67102"/>
</linearGradient>
<linearGradient id="paint4_linear_12_201" x1="150.181" y1="90.1273" x2="219.132" y2="112.177" gradientUnits="userSpaceOnUse">
<stop stop-color="#FFE308"/>
<stop offset="1" stop-color="#FFA600"/>
</linearGradient>
<linearGradient id="paint5_linear_12_201" x1="206.15" y1="96.3091" x2="203.669" y2="101.863" gradientUnits="userSpaceOnUse">
<stop stop-color="#FFE33F"/>
<stop offset="1" stop-color="#FFDA00" stop-opacity="0"/>
</linearGradient>
<linearGradient id="paint6_linear_12_201" x1="200" y1="11" x2="200" y2="27.0727" gradientUnits="userSpaceOnUse">
<stop stop-color="#FFE508"/>
<stop offset="1" stop-color="#E97E03"/>
</linearGradient>
<linearGradient id="paint7_linear_12_201" x1="200" y1="11" x2="200" y2="27.0727" gradientUnits="userSpaceOnUse">
<stop stop-color="white" stop-opacity="0.3"/>
<stop offset="1" stop-color="white" stop-opacity="0"/>
</linearGradient>
<linearGradient id="paint8_linear_12_201" x1="267.04" y1="49.9455" x2="258.382" y2="59.1742" gradientUnits="userSpaceOnUse">
<stop stop-color="#E77302"/>
<stop offset="1" stop-color="#FFE508"/>
</linearGradient>
<linearGradient id="paint9_linear_12_201" x1="267.655" y1="51.1818" x2="257.771" y2="59.7865" gradientUnits="userSpaceOnUse">
<stop stop-color="white" stop-opacity="0.3"/>
<stop offset="1" stop-color="white" stop-opacity="0"/>
</linearGradient>
<linearGradient id="paint10_linear_12_201" x1="7.84823" y1="-5.54121e-08" x2="5.23215" y2="13.0804" gradientUnits="userSpaceOnUse">
<stop stop-color="#E77302"/>
<stop offset="1" stop-color="#FFC839"/>
</linearGradient>
<linearGradient id="paint11_linear_12_201" x1="11.7157" y1="3.08308" x2="1.84984" y2="11.7157" gradientUnits="userSpaceOnUse">
<stop stop-color="white" stop-opacity="0.3"/>
<stop offset="1" stop-color="white" stop-opacity="0"/>
</linearGradient>
</defs>
</svg>
